<svg width="29" height="29" viewBox="0 0 29 29" fill="none" xmlns="http://www.w3.org/2000/svg">
<path d="M20.8243 10.3666C20.8243 8.7545 20.1674 7.2084 18.9983 6.06845C17.8291 4.9285 16.2433 4.28809 14.5899 4.28809C12.9364 4.28809 11.3507 4.9285 10.1815 6.06845C9.01232 7.2084 8.35548 8.7545 8.35548 10.3666C8.35548 17.4583 5.23828 20.6534 5.23828 20.6534H23.9415C23.9415 20.6534 20.8243 17.4583 20.8243 10.3666Z" stroke="#6D6D6D" stroke-width="2.3379" stroke-linecap="round" stroke-linejoin="round"/>
<path d="M16.9278 24.1602C16.6902 24.5157 16.3491 24.8108 15.9388 25.016C15.5285 25.2211 15.0634 25.3291 14.5899 25.3291C14.1164 25.3291 13.6512 25.2211 13.2409 25.016C12.8306 24.8108 12.4895 24.5157 12.252 24.1602" stroke="#6D6D6D" stroke-width="2.3379" stroke-linecap="round" stroke-linejoin="round"/>
</svg>
