<svg width="33" height="33" viewBox="0 0 33 33" fill="none" xmlns="http://www.w3.org/2000/svg">
<circle opacity="0.2" cx="16.0859" cy="16.0859" r="16.0859" fill="#F04848"/>
<path d="M13.4286 12.4219V10.7719C13.4286 10.4138 13.564 10.0705 13.8051 9.81728C14.0463 9.56411 14.3733 9.42188 14.7143 9.42188H17.2857C17.6267 9.42188 17.9537 9.56411 18.1949 9.81728C18.436 10.0705 18.5714 10.4138 18.5714 10.7719V12.4219M21.25 12.4219L20.5 21.5719C20.5 21.9299 20.3645 22.2733 20.1234 22.5265C19.8823 22.7796 19.5553 22.9219 19.2143 22.9219H12.7857C12.4447 22.9219 12.1177 22.7796 11.8766 22.5265C11.6355 22.2733 11.5 21.9299 11.5 21.5719L10.75 12.4219H21.25Z" stroke="#F04848" stroke-width="1.5" stroke-linecap="round" stroke-linejoin="round"/>
<path d="M10 12.4219H11.3333H22" stroke="#F04848" stroke-width="1.5" stroke-linecap="round" stroke-linejoin="round"/>
<path d="M14.5 15.4219V19.1719" stroke="#F04848" stroke-width="1.5" stroke-linecap="round" stroke-linejoin="round"/>
<path d="M17.5 15.4219V19.1719" stroke="#F04848" stroke-width="1.5" stroke-linecap="round" stroke-linejoin="round"/>
</svg>
