<svg width="24" height="24" viewBox="0 0 24 24" fill="none" xmlns="http://www.w3.org/2000/svg">
<path d="M12.078 2.5C12.4551 2.5 12.8168 2.65804 13.0835 2.93934C13.3502 3.22064 13.5001 3.60218 13.5001 4C13.5001 4.39782 13.3502 4.77936 13.0835 5.06066C12.8168 5.34196 12.4551 5.5 12.078 5.5H7.33771C7.21199 5.5 7.09142 5.55268 7.00253 5.64645C6.91363 5.74021 6.86369 5.86739 6.86369 6V18C6.86369 18.1326 6.91363 18.2598 7.00253 18.3536C7.09142 18.4473 7.21199 18.5 7.33771 18.5H11.6039C11.9811 18.5 12.3428 18.658 12.6095 18.9393C12.8762 19.2206 13.026 19.6022 13.026 20C13.026 20.3978 12.8762 20.7794 12.6095 21.0607C12.3428 21.342 11.9811 21.5 11.6039 21.5H7.33771C6.45768 21.5 5.61368 21.1313 4.9914 20.4749C4.36912 19.8185 4.01953 18.9283 4.01953 18V6C4.01953 5.07174 4.36912 4.1815 4.9914 3.52513C5.61368 2.86875 6.45768 2.5 7.33771 2.5H12.078ZM17.8232 8.11L20.5052 10.94C20.7715 11.2213 20.9211 11.6025 20.9211 12C20.9211 12.3975 20.7715 12.7787 20.5052 13.06L17.8241 15.89C17.5573 16.1714 17.1955 16.3295 16.8182 16.3295C16.441 16.3295 16.0791 16.1714 15.8123 15.89C15.5456 15.6086 15.3957 15.227 15.3957 14.829C15.3957 14.431 15.5456 14.0494 15.8123 13.768L16.0664 13.5H12.078C11.7008 13.5 11.3391 13.342 11.0724 13.0607C10.8057 12.7794 10.6559 12.3978 10.6559 12C10.6559 11.6022 10.8057 11.2206 11.0724 10.9393C11.3391 10.658 11.7008 10.5 12.078 10.5H16.0664L15.8123 10.232C15.6803 10.0927 15.5756 9.92727 15.5042 9.74525C15.4327 9.56323 15.396 9.36815 15.396 9.17115C15.3961 8.97415 15.4329 8.77909 15.5044 8.5971C15.5759 8.41511 15.6807 8.24977 15.8128 8.1105C15.9449 7.97123 16.1017 7.86077 16.2743 7.78543C16.4469 7.71008 16.6318 7.67133 16.8186 7.67137C17.0053 7.67142 17.1903 7.71027 17.3628 7.7857C17.5353 7.86113 17.6921 7.97167 17.8241 8.111L17.8232 8.11Z" fill="#E30000"/>
</svg>
