<svg width="607" height="255" viewBox="0 0 607 255" fill="none" xmlns="http://www.w3.org/2000/svg">
<rect x="99.0078" width="1.2207" height="213" fill="#F8F8F8"/>
<rect x="178.824" width="1.2207" height="213" fill="#F8F8F8"/>
<rect x="258.641" width="1.2207" height="213" fill="#F8F8F8"/>
<rect x="338.457" width="1.2207" height="213" fill="#F8F8F8"/>
<rect x="418.273" width="1.2207" height="213" fill="#F8F8F8"/>
<rect x="498.09" width="1.2207" height="213" fill="#F8F8F8"/>
<rect x="577.906" width="1.2207" height="213" fill="#F8F8F8"/>
<path d="M125.631 147.86C99.0462 133.184 82.8 163.724 78 180.828V212.999H606V85.646C601.939 92.5587 601.939 118.88 566.492 85.646C531.046 52.4119 510.739 155.837 495.969 156.9C481.2 157.964 469.015 112.233 436.154 160.888C409.865 199.812 393.938 191.818 389.262 182.956C338.308 58.7928 329.077 61.4515 311.354 67.0349C297.175 71.5015 279.354 61.806 272.215 56.3999C230.862 21.3046 218.677 120.475 188.4 153.178C158.123 185.88 158.862 166.205 125.631 147.86Z" fill="url(#paint0_linear_1656_16479)"/>
<path d="M606 85.646C601.939 92.5587 601.939 118.88 566.492 85.646C531.046 52.4119 510.739 155.837 495.969 156.9C481.2 157.964 469.016 112.233 436.154 160.888C409.865 199.812 393.939 191.818 389.262 182.956C338.308 58.7928 329.077 61.4515 311.354 67.0349C297.176 71.5016 279.354 61.806 272.216 56.3999C230.862 21.3046 218.677 120.475 188.4 153.178C158.123 185.88 158.862 166.205 125.631 147.86C115.621 141.084 92.08 138.13 78 180.517" stroke="#FFB722" stroke-width="2" stroke-linecap="round"/>
<path d="M3.584 9.764C5.194 9.764 6.034 10.576 6.034 11.794C6.034 13.096 5.18 13.936 3.864 13.936C2.59 13.936 1.778 13.166 1.778 11.85H0.42C0.42 13.95 1.848 15.168 3.836 15.168C5.894 15.168 7.434 13.866 7.434 11.822C7.434 10.002 6.132 8.84 4.41 8.63L7.182 5.984V4.878H0.896V6.096H5.446L2.576 8.854V9.764H3.584ZM8.36303 9.946C8.36303 13.096 9.91703 15.182 12.535 15.182C15.139 15.182 16.693 13.096 16.693 9.946C16.693 6.81 15.069 4.682 12.535 4.682C9.98703 4.682 8.36303 6.81 8.36303 9.946ZM9.72103 9.946C9.72103 7.426 10.757 5.914 12.535 5.914C14.313 5.914 15.335 7.426 15.335 9.946C15.335 12.438 14.313 13.95 12.535 13.95C10.757 13.95 9.72103 12.438 9.72103 9.946ZM17.7901 9.946C17.7901 13.096 19.3441 15.182 21.9621 15.182C24.5661 15.182 26.1201 13.096 26.1201 9.946C26.1201 6.81 24.4961 4.682 21.9621 4.682C19.4141 4.682 17.7901 6.81 17.7901 9.946ZM19.1481 9.946C19.1481 7.426 20.1841 5.914 21.9621 5.914C23.7401 5.914 24.7621 7.426 24.7621 9.946C24.7621 12.438 23.7401 13.95 21.9621 13.95C20.1841 13.95 19.1481 12.438 19.1481 9.946ZM29.0791 4.878H27.7071V15H29.0791V12.676L30.9271 10.338L33.6851 15H35.2811L31.8371 9.176L35.2251 4.878H33.5871L29.0791 10.618V4.878Z" fill="#919191"/>
<path d="M7.476 79.986V78.712H2.8L4.9 76.892C6.692 75.338 7.406 74.316 7.406 72.874C7.406 70.928 6.104 69.696 4.074 69.696C2.016 69.696 0.644 71.11 0.602 73.28H1.974C2.002 71.838 2.814 70.928 4.06 70.928C5.278 70.928 6.006 71.684 6.006 72.958C6.006 74.036 5.544 74.722 3.906 76.136L0.644 78.95V80L7.476 79.986ZM8.45873 74.946C8.45873 78.096 10.0127 80.182 12.6307 80.182C15.2347 80.182 16.7887 78.096 16.7887 74.946C16.7887 71.81 15.1647 69.682 12.6307 69.682C10.0827 69.682 8.45873 71.81 8.45873 74.946ZM9.81673 74.946C9.81673 72.426 10.8527 70.914 12.6307 70.914C14.4087 70.914 15.4307 72.426 15.4307 74.946C15.4307 77.438 14.4087 78.95 12.6307 78.95C10.8527 78.95 9.81673 77.438 9.81673 74.946ZM17.8858 74.946C17.8858 78.096 19.4398 80.182 22.0578 80.182C24.6618 80.182 26.2158 78.096 26.2158 74.946C26.2158 71.81 24.5918 69.682 22.0578 69.682C19.5098 69.682 17.8858 71.81 17.8858 74.946ZM19.2438 74.946C19.2438 72.426 20.2798 70.914 22.0578 70.914C23.8358 70.914 24.8578 72.426 24.8578 74.946C24.8578 77.438 23.8358 78.95 22.0578 78.95C20.2798 78.95 19.2438 77.438 19.2438 74.946ZM29.1748 69.878H27.8028V80H29.1748V77.676L31.0228 75.338L33.7808 80H35.3768L31.9328 74.176L35.3208 69.878H33.6828L29.1748 75.618V69.878Z" fill="#919191"/>
<path d="M2.618 136.11V145H3.934V134.878H0.49V136.11H2.618ZM5.50561 139.946C5.50561 143.096 7.05961 145.182 9.67761 145.182C12.2816 145.182 13.8356 143.096 13.8356 139.946C13.8356 136.81 12.2116 134.682 9.67761 134.682C7.12961 134.682 5.50561 136.81 5.50561 139.946ZM6.86361 139.946C6.86361 137.426 7.89961 135.914 9.67761 135.914C11.4556 135.914 12.4776 137.426 12.4776 139.946C12.4776 142.438 11.4556 143.95 9.67761 143.95C7.89961 143.95 6.86361 142.438 6.86361 139.946ZM14.9326 139.946C14.9326 143.096 16.4866 145.182 19.1046 145.182C21.7086 145.182 23.2626 143.096 23.2626 139.946C23.2626 136.81 21.6386 134.682 19.1046 134.682C16.5566 134.682 14.9326 136.81 14.9326 139.946ZM16.2906 139.946C16.2906 137.426 17.3266 135.914 19.1046 135.914C20.8826 135.914 21.9046 137.426 21.9046 139.946C21.9046 142.438 20.8826 143.95 19.1046 143.95C17.3266 143.95 16.2906 142.438 16.2906 139.946ZM26.2217 134.878H24.8497V145H26.2217V142.676L28.0697 140.338L30.8277 145H32.4237L28.9797 139.176L32.3677 134.878H30.7297L26.2217 140.618V134.878Z" fill="#919191"/>
<path d="M4.088 210.168C6.272 210.168 7.77 208.698 7.77 206.598C7.77 204.652 6.44 203.21 4.382 203.21C3.626 203.21 2.954 203.42 2.422 203.826L3.094 201.138H7.168V199.878H2.1L0.868 205.072L2.03 205.366C2.492 204.792 3.276 204.386 4.13 204.386C5.544 204.386 6.37 205.352 6.37 206.654C6.37 208.026 5.488 208.936 4.116 208.936C2.828 208.936 2.03 208.138 2.03 206.836H0.672C0.672 208.852 2.016 210.168 4.088 210.168ZM8.67748 204.946C8.67748 208.096 10.2315 210.182 12.8495 210.182C15.4535 210.182 17.0075 208.096 17.0075 204.946C17.0075 201.81 15.3835 199.682 12.8495 199.682C10.3015 199.682 8.67748 201.81 8.67748 204.946ZM10.0355 204.946C10.0355 202.426 11.0715 200.914 12.8495 200.914C14.6275 200.914 15.6495 202.426 15.6495 204.946C15.6495 207.438 14.6275 208.95 12.8495 208.95C11.0715 208.95 10.0355 207.438 10.0355 204.946ZM19.9665 199.878H18.5945V210H19.9665V207.676L21.8145 205.338L24.5725 210H26.1685L22.7245 204.176L26.1125 199.878H24.4745L19.9665 205.618V199.878Z" fill="#919191"/>
<path d="M80.52 249V244.674C80.52 243.26 80.492 242.224 80.422 241.734L83.362 249H84.65L87.604 241.706C87.534 242.42 87.52 243.106 87.52 244.996V249H88.864V238.878H87.492L84.006 247.39L80.52 238.878H79.176V249H80.52ZM100.069 243.932C100.069 240.852 98.0669 238.696 95.1969 238.696C92.3409 238.696 90.3389 240.866 90.3389 243.932C90.3389 247.012 92.3269 249.168 95.1829 249.168C98.0529 249.168 100.069 247.012 100.069 243.932ZM98.6269 243.932C98.6269 246.27 97.2549 247.852 95.1969 247.852C93.1389 247.852 91.7809 246.284 91.7809 243.932C91.7809 241.58 93.1389 240.026 95.1969 240.026C97.2549 240.026 98.6269 241.58 98.6269 243.932ZM102.916 249V241.174L108.096 249H109.468V238.878H108.096V246.704L102.916 238.878H101.544V249H102.916Z" fill="#919191"/>
<path d="M165.196 240.138H168.248V249H169.62V240.138H172.658V238.878H165.196V240.138ZM173.687 245.402C173.687 247.74 175.171 249.168 177.565 249.168C179.945 249.168 181.429 247.726 181.429 245.402V238.878H180.043V245.318C180.043 246.928 179.161 247.838 177.565 247.838C175.955 247.838 175.059 246.942 175.059 245.318V238.878H173.687V245.402ZM189.604 249V247.726H184.802V244.52H189.128V243.302H184.802V240.138H189.604V238.878H183.43V249H189.604Z" fill="#919191"/>
<path d="M248.22 249H249.564L252.042 240.992L254.492 249H255.808L258.86 238.878H257.46L255.598 245.08C255.458 245.528 255.318 246.046 255.15 246.9C254.996 246.144 254.856 245.612 254.688 245.066L252.784 238.878H251.3L249.382 245.066C249.228 245.598 249.074 246.088 248.906 246.9C248.766 246.13 248.626 245.598 248.486 245.066L246.638 238.878H245.21L248.22 249ZM266.138 249V247.726H261.336V244.52H265.662V243.302H261.336V240.138H266.138V238.878H259.964V249H266.138ZM271.192 249C274.188 249 276.204 246.956 276.204 243.946C276.204 240.922 274.16 238.878 271.136 238.878H267.846V249H271.192ZM271.038 240.138C273.348 240.138 274.776 241.594 274.776 243.946C274.776 246.27 273.348 247.726 271.094 247.726H269.218V240.138H271.038Z" fill="#919191"/>
<path d="M331.196 240.138H334.248V249H335.62V240.138H338.658V238.878H331.196V240.138ZM341.129 249V244.506H346.141V249H347.513V238.878H346.141V243.232H341.129V238.878H339.757V249H341.129ZM349.511 245.402C349.511 247.74 350.995 249.168 353.389 249.168C355.769 249.168 357.253 247.726 357.253 245.402V238.878H355.867V245.318C355.867 246.928 354.985 247.838 353.389 247.838C351.779 247.838 350.883 246.942 350.883 245.318V238.878H349.511V245.402ZM360.626 249V244.996H363.216L365.106 249H366.632L364.574 244.73C365.834 244.324 366.534 243.316 366.534 241.916C366.534 240.026 365.246 238.878 363.076 238.878H359.254V249H360.626ZM360.626 240.11H363.076C364.336 240.11 365.092 240.754 365.092 241.93C365.092 243.092 364.364 243.778 363.09 243.778H360.626V240.11Z" fill="#919191"/>
<path d="M428.524 244.702V243.456H424.548V240.138H429.28V238.878H423.176V249H424.548V244.702H428.524ZM432.034 249V244.996H434.624L436.514 249H438.04L435.982 244.73C437.242 244.324 437.942 243.316 437.942 241.916C437.942 240.026 436.654 238.878 434.484 238.878H430.662V249H432.034ZM432.034 240.11H434.484C435.744 240.11 436.5 240.754 436.5 241.93C436.5 243.092 435.772 243.778 434.498 243.778H432.034V240.11ZM440.914 238.878H439.542V249H440.914V238.878Z" fill="#919191"/>
<path d="M497.588 241.608C497.588 243.064 498.442 244.016 500.094 244.394L501.76 244.772C502.726 244.996 503.16 245.5 503.16 246.298C503.16 247.306 502.306 247.936 500.962 247.936C499.688 247.936 498.876 247.32 498.848 246.354H497.448C497.532 248.09 498.904 249.168 500.962 249.168C503.118 249.168 504.532 248.006 504.532 246.186C504.532 244.758 503.692 243.862 502.04 243.484L500.374 243.092C499.422 242.868 498.96 242.378 498.96 241.566C498.96 240.572 499.786 239.928 501.06 239.928C502.194 239.928 502.908 240.516 502.978 241.524H504.364C504.252 239.774 503.006 238.696 501.074 238.696C498.988 238.696 497.588 239.872 497.588 241.608ZM506.396 249L507.292 246.48H511.548L512.458 249H513.9L510.19 238.878H508.664L504.968 249H506.396ZM509.252 241.062C509.322 240.852 509.392 240.614 509.42 240.474C509.448 240.628 509.518 240.866 509.588 241.062L511.142 245.29H507.712L509.252 241.062ZM513.07 240.138H516.122V249H517.494V240.138H520.532V238.878H513.07V240.138Z" fill="#919191"/>
<path d="M575.588 241.608C575.588 243.064 576.442 244.016 578.094 244.394L579.76 244.772C580.726 244.996 581.16 245.5 581.16 246.298C581.16 247.306 580.306 247.936 578.962 247.936C577.688 247.936 576.876 247.32 576.848 246.354H575.448C575.532 248.09 576.904 249.168 578.962 249.168C581.118 249.168 582.532 248.006 582.532 246.186C582.532 244.758 581.692 243.862 580.04 243.484L578.374 243.092C577.422 242.868 576.96 242.378 576.96 241.566C576.96 240.572 577.786 239.928 579.06 239.928C580.194 239.928 580.908 240.516 580.978 241.524H582.364C582.252 239.774 581.006 238.696 579.074 238.696C576.988 238.696 575.588 239.872 575.588 241.608ZM583.906 245.402C583.906 247.74 585.39 249.168 587.784 249.168C590.164 249.168 591.648 247.726 591.648 245.402V238.878H590.262V245.318C590.262 246.928 589.38 247.838 587.784 247.838C586.174 247.838 585.278 246.942 585.278 245.318V238.878H583.906V245.402ZM595.021 249V241.174L600.201 249H601.573V238.878H600.201V246.704L595.021 238.878H593.649V249H595.021Z" fill="#919191"/>
<defs>
<linearGradient id="paint0_linear_1656_16479" x1="311.917" y1="36.3591" x2="313.487" y2="192.349" gradientUnits="userSpaceOnUse">
<stop stop-color="#FFB722" stop-opacity="0.25"/>
<stop offset="0.784304" stop-color="#F3C25B" stop-opacity="0.172663"/>
<stop offset="1" stop-color="#D9D9D9" stop-opacity="0"/>
</linearGradient>
</defs>
</svg>
