<svg width="211" height="216" viewBox="0 0 211 216" fill="none" xmlns="http://www.w3.org/2000/svg">
<circle cx="105.155" cy="105.155" r="105.155" fill="#FFB722"/>
<path d="M181.477 214.002H30.1831V86.0149L105.818 37.9746L181.477 86.0149V214.002Z" fill="#395A85"/>
<g opacity="0.2">
<path d="M181.477 212.986H30.1831V84.9993L105.818 36.959L181.477 84.9993V212.986Z" fill="#041934"/>
<path d="M181.477 214.093H182.584V212.986V84.9993V84.3909L182.071 84.0648L106.412 36.0245L105.818 35.6477L105.225 36.0246L29.5896 84.0649L29.0762 84.391V84.9993V212.986V214.093H30.1831H181.477Z" stroke="black" stroke-opacity="0.6" stroke-width="2.2138"/>
</g>
<path d="M172.94 30.8711H38.7097V203.191H172.94V30.8711Z" fill="white"/>
<path d="M174.416 30.8711V29.3952H172.94H38.7097H37.2339V30.8711V203.191V204.667H38.7097H172.94H174.416V203.191V30.8711Z" stroke="white" stroke-opacity="0.6" stroke-width="2.95173"/>
<path d="M75.0002 94.4742L97.5719 116.814L147.378 69" stroke="#FFB722" stroke-width="14.1268" stroke-linecap="round" stroke-linejoin="round"/>
<path d="M181.477 118.113V214.001H30.1831V118.113C36.6803 121.736 43.0687 125.649 49.5055 129.417C55.9423 133.185 62.3187 137.098 68.683 141.01C75.7719 145.322 82.8608 149.717 89.9255 154.137L90.155 154.005C90.0825 154.005 90.0342 154.125 89.9738 154.162C95.2553 157.422 100.541 160.703 105.83 164.004C111.096 160.683 116.397 157.338 121.687 154.065C121.626 154.065 121.578 153.956 121.506 153.908C121.577 153.958 121.654 153.998 121.735 154.029C128.796 149.625 135.877 145.245 142.978 140.89C149.346 137.001 155.73 133.144 162.131 129.32C168.628 125.589 174.98 121.736 181.477 118.113Z" fill="#395A85"/>
<g opacity="0.2">
<path d="M181.477 118.115C175.367 122.402 169.147 126.569 162.988 130.747C156.829 134.926 150.562 139.008 144.306 143.102C137.785 147.377 131.251 151.611 124.706 155.806L124.114 156.217L106.688 167.327L105.818 167.846L104.973 167.327L87.5706 156.192L86.9547 155.806C80.3931 151.603 73.8517 147.36 67.3304 143.077C61.0989 139.008 54.8795 134.877 48.6722 130.747C42.4649 126.617 36.2938 122.342 30.1831 118.115C36.6803 121.738 43.0687 125.651 49.5055 129.419C55.9423 133.187 62.3187 137.099 68.683 141.012C75.7719 145.324 82.8608 149.719 89.9255 154.139C95.2392 157.416 100.541 160.705 105.83 164.006C111.096 160.685 116.397 157.34 121.687 154.067C128.747 149.663 135.828 145.283 142.929 140.928C149.298 137.039 155.682 133.183 162.083 129.358C168.628 125.591 174.98 121.738 181.477 118.115Z" fill="#041934"/>
<path d="M90.1314 153.945C90.059 153.945 90.0107 154.066 89.9503 154.102L87.535 156.131C83.743 159.331 79.8543 162.399 75.9053 165.382C71.0747 169.005 66.1596 172.628 61.2082 176.082C56.2569 179.535 51.233 182.917 46.1126 186.19C40.9922 189.462 35.8476 192.663 30.5098 195.597C35.0988 191.576 39.869 187.82 44.6876 184.173C49.5061 180.526 54.4574 176.927 59.3847 173.461C64.3119 169.995 69.384 166.601 74.4924 163.329C78.5621 160.72 82.7044 158.148 86.9191 155.745C87.8973 155.177 88.8755 154.634 89.8778 154.078L90.1314 153.945Z" fill="#041934"/>
<path d="M181.115 195.597C175.777 192.663 170.596 189.462 165.512 186.19C160.428 182.917 155.343 179.511 150.392 176.082C145.441 172.652 140.513 169.053 135.695 165.382C131.77 162.399 127.881 159.343 124.114 156.155L121.698 154.102C121.638 154.102 121.59 153.994 121.517 153.945C121.588 153.995 121.665 154.035 121.747 154.066C122.749 154.634 123.727 155.177 124.705 155.745C128.92 158.16 133.038 160.72 137.132 163.329C142.24 166.601 147.24 170.007 152.216 173.461C157.191 176.915 162.094 180.489 166.913 184.173C171.731 187.856 176.526 191.576 181.115 195.597Z" fill="#041934"/>
</g>
<path d="M41.1009 23.6761C40.2958 17.0382 40.2958 10.3273 41.1009 3.68945C41.906 10.3273 41.906 17.0382 41.1009 23.6761Z" fill="white"/>
<path d="M32.5986 26.8522C29.9517 24.81 27.4461 22.5908 25.0991 20.2101C22.7155 17.87 20.4962 15.3682 18.457 12.7227C23.7208 16.8479 28.4688 21.5919 32.5986 26.8522Z" fill="white"/>
<path d="M28.8426 35.1012C25.5272 35.5309 22.1862 35.7326 18.8432 35.705C15.5044 35.7423 12.167 35.5446 8.85596 35.1133C12.1667 34.6776 15.5041 34.4759 18.8432 34.5095C22.1859 34.4778 25.5269 34.6755 28.8426 35.1012Z" fill="white"/>
<path d="M32.0179 43.5902C27.8882 48.85 23.1447 53.5976 17.8884 57.7318C22.0088 52.4601 26.7533 47.7075 32.0179 43.5781V43.5902Z" fill="white"/>
<path d="M169.655 23.6761C169.236 20.3598 169.038 17.0193 169.063 13.6767C169.04 10.3375 169.245 7.00048 169.679 3.68945C170.484 10.3273 170.484 17.0382 169.679 23.6761H169.655Z" fill="white"/>
<path d="M178.156 26.8522C182.286 21.5919 187.034 16.8479 192.298 12.7227C190.259 15.3682 188.04 17.87 185.656 20.2101C183.309 22.5908 180.803 24.81 178.156 26.8522Z" fill="white"/>
<path d="M181.912 35.1013C185.227 34.6756 188.568 34.4779 191.911 34.5095C195.25 34.4756 198.587 34.6773 201.898 35.1134C198.587 35.545 195.25 35.7427 191.911 35.7051C188.568 35.7327 185.227 35.5309 181.912 35.1013Z" fill="white"/>
<path d="M178.736 43.5898C184 47.7155 188.744 52.464 192.865 57.7314C190.223 55.6846 187.721 53.4615 185.378 51.0773C182.995 48.7369 180.775 46.2352 178.736 43.5898Z" fill="white"/>
</svg>
