<svg width="34" height="34" viewBox="0 0 34 34" fill="none" xmlns="http://www.w3.org/2000/svg">
<circle opacity="0.25" cx="17" cy="17" r="17" fill="#FFC54E"/>
<circle opacity="0.15" cx="17" cy="17" r="17" fill="#FFC54E"/>
<path d="M16.5245 7.46353C16.6741 7.00287 17.3259 7.00287 17.4755 7.46353L19.5819 13.9463C19.6488 14.1523 19.8408 14.2918 20.0574 14.2918H26.8738C27.3582 14.2918 27.5596 14.9116 27.1677 15.1963L21.6531 19.2029C21.4779 19.3302 21.4046 19.5559 21.4715 19.7619L23.5779 26.2447C23.7276 26.7053 23.2003 27.0884 22.8085 26.8037L17.2939 22.7971C17.1186 22.6698 16.8814 22.6698 16.7061 22.7971L11.1915 26.8037C10.7997 27.0884 10.2724 26.7053 10.4221 26.2447L12.5285 19.7619C12.5954 19.5559 12.5221 19.3302 12.3469 19.2029L6.83227 15.1963C6.44041 14.9116 6.6418 14.2918 7.12616 14.2918H13.9426C14.1592 14.2918 14.3512 14.1523 14.4181 13.9463L16.5245 7.46353Z" fill="#FFC54E"/>
</svg>
