<svg width="469" height="406" viewBox="0 0 469 406" fill="none" xmlns="http://www.w3.org/2000/svg">
<path d="M120.288 47.482L7.08693 87.1246C3.17293 88.4953 1.11114 92.7794 2.48181 96.6934L59.2785 258.879C60.6492 262.793 64.9333 264.855 68.8473 263.485L182.049 223.842C185.963 222.471 188.025 218.187 186.654 214.273L129.857 52.0872C128.487 48.1732 124.202 46.1114 120.288 47.482Z" fill="#9CADC2"/>
<path d="M121.74 57.5626L12.2383 95.9097L68.5316 256.658L178.034 218.311L121.74 57.5626Z" fill="#9CADC2"/>
<path d="M119.78 56.8063L10.2783 95.1533L65.4986 252.838L175.001 214.49L119.78 56.8063Z" fill="#FAFAFA"/>
<path d="M174.981 214.488L119.62 56.8596L119.821 56.9541L10.3393 95.3134L10.4456 95.1008C31.0833 154.322 50.2925 209.022 65.6291 252.788L65.452 252.706L174.993 214.488L65.5346 252.989H65.4048V252.859C50.0563 209.093 30.9062 154.393 10.1504 95.1835V95.0182H10.3039L119.797 56.6943H119.951V56.836L174.981 214.488Z" fill="#9CADC2"/>
<path d="M136.148 228.089C136.148 228.089 160.529 207.522 164.756 186.105C162.309 189.5 159.2 192.364 155.617 194.525C152.034 196.686 148.05 198.099 143.905 198.679C143.905 198.679 143.421 221.111 136.148 228.089Z" fill="#9CADC2"/>
<path d="M47.6998 130.289L41.9388 132.307C39.8341 133.044 38.7254 135.347 39.4625 137.452L41.4799 143.213C42.217 145.318 44.5207 146.426 46.6254 145.689L52.3863 143.672C54.491 142.935 55.5997 140.631 54.8626 138.526L52.8452 132.765C52.1081 130.661 49.8045 129.552 47.6998 130.289Z" fill="#FFB722"/>
<path d="M46.9982 140.213C46.9581 140.234 46.9135 140.245 46.8684 140.245C46.8232 140.245 46.7786 140.234 46.7385 140.213L44.0938 138.678C44.0298 138.629 43.9858 138.559 43.9702 138.48C43.9545 138.401 43.9683 138.319 44.0089 138.249C44.0495 138.179 44.1142 138.127 44.1907 138.102C44.2672 138.076 44.3503 138.08 44.4244 138.112L46.7857 139.458L49.572 133.554C49.6127 133.476 49.6812 133.415 49.7643 133.385C49.8473 133.354 49.9388 133.356 50.0207 133.389C50.0607 133.408 50.0964 133.435 50.1259 133.468C50.1554 133.501 50.1779 133.539 50.1922 133.581C50.2066 133.623 50.2123 133.667 50.2092 133.711C50.2061 133.755 50.1942 133.798 50.1742 133.838L47.2344 140.119C47.204 140.151 47.1673 140.175 47.1265 140.192C47.0858 140.208 47.0421 140.215 46.9982 140.213Z" fill="white"/>
<path d="M122.607 105.88C122.607 105.974 108.439 111.039 90.859 117.191C73.2791 123.342 58.9814 128.253 58.9814 128.171C58.9814 128.088 73.1492 123.011 90.7409 116.86C108.333 110.709 122.583 105.797 122.607 105.88Z" fill="#9CADC2"/>
<path d="M89.2183 128.572C89.2183 128.572 88.8523 128.738 88.1911 128.997L85.3339 130.06C82.9726 130.934 79.5724 132.126 75.8887 133.425C72.2051 134.723 68.8048 135.88 66.4435 136.695L63.5509 137.651C63.2008 137.78 62.8417 137.883 62.4766 137.958C62.8067 137.786 63.1502 137.639 63.5037 137.522L66.3609 136.471C68.7222 135.585 72.1225 134.393 75.8061 133.094C79.4897 131.795 82.89 130.65 85.2513 129.824L88.1439 128.867C88.4928 128.738 88.8523 128.64 89.2183 128.572Z" fill="#9CADC2"/>
<path d="M124.106 110.225C124.106 110.308 109.938 115.373 92.3463 121.524C74.7546 127.675 60.4688 132.598 60.4688 132.504C60.4688 132.409 74.6365 127.356 92.24 121.205C109.843 115.054 124.106 110.131 124.106 110.225Z" fill="#9CADC2"/>
<path d="M55.9234 153.782L50.1625 155.799C48.0578 156.536 46.9491 158.84 47.6861 160.945L49.7036 166.706C50.4406 168.81 52.7443 169.919 54.849 169.182L60.6099 167.164C62.7146 166.427 63.8233 164.124 63.0863 162.019L61.0688 156.258C60.3318 154.153 58.0281 153.045 55.9234 153.782Z" fill="#FFB722"/>
<path d="M55.227 163.708C55.1848 163.729 55.1383 163.74 55.0912 163.74C55.0441 163.74 54.9977 163.729 54.9554 163.708L52.3226 162.173C52.2844 162.152 52.2509 162.124 52.2241 162.09C52.1973 162.056 52.1778 162.016 52.1667 161.974C52.1557 161.932 52.1533 161.889 52.1598 161.846C52.1663 161.803 52.1815 161.761 52.2045 161.725C52.2253 161.686 52.2537 161.653 52.2879 161.626C52.322 161.599 52.3614 161.58 52.4034 161.569C52.4454 161.558 52.4892 161.555 52.5322 161.562C52.5751 161.568 52.6163 161.584 52.6532 161.607L55.0145 162.952L57.8008 156.99C57.8392 156.912 57.9056 156.852 57.9867 156.821C58.0677 156.791 58.1574 156.792 58.2376 156.825C58.3174 156.861 58.3797 156.927 58.4107 157.009C58.4416 157.091 58.4389 157.182 58.4029 157.262L55.4631 163.555C55.4369 163.595 55.4023 163.63 55.3616 163.657C55.3209 163.683 55.275 163.701 55.227 163.708Z" fill="white"/>
<path d="M130.836 129.375C130.836 129.47 116.668 134.523 99.0767 140.686C81.4851 146.849 67.1992 151.748 67.1992 151.666C67.1992 151.583 81.367 146.506 98.9587 140.355C116.55 134.204 130.813 129.292 130.836 129.375Z" fill="#9CADC2"/>
<path d="M97.4468 152.067C97.4468 152.067 97.0808 152.232 96.4078 152.492L93.5624 153.555C91.2011 154.428 87.8009 155.621 84.1173 156.919C80.4336 158.218 77.0334 159.375 74.6721 160.19L71.7795 161.146C71.4293 161.275 71.0702 161.377 70.7051 161.453C71.0338 161.277 71.3776 161.131 71.7322 161.016L74.5894 159.965C76.9507 159.08 80.351 157.887 84.0346 156.589C87.7182 155.29 91.1185 154.145 93.4798 153.318L96.3724 152.362C96.7214 152.233 97.0808 152.134 97.4468 152.067Z" fill="#9CADC2"/>
<path d="M132.37 133.743C132.37 133.826 118.203 138.891 100.611 145.042C83.0193 151.193 68.7334 156.117 68.7334 156.022C68.7334 155.928 82.9012 150.875 100.493 144.723C118.085 138.572 132.37 133.625 132.37 133.743Z" fill="#9CADC2"/>
<path d="M64.1597 177.274L58.3988 179.292C56.2941 180.029 55.1854 182.333 55.9224 184.437L57.9399 190.198C58.6769 192.303 60.9806 193.412 63.0853 192.675L68.8463 190.657C70.951 189.92 72.0597 187.616 71.3226 185.512L69.3051 179.751C68.5681 177.646 66.2644 176.537 64.1597 177.274Z" fill="#FFB722"/>
<path d="M63.4567 187.203C63.4144 187.224 63.368 187.235 63.3209 187.235C63.2738 187.235 63.2273 187.224 63.1851 187.203L60.5405 185.692C60.4974 185.673 60.4587 185.646 60.427 185.611C60.3953 185.577 60.3713 185.536 60.3566 185.492C60.3418 185.447 60.3368 185.4 60.3416 185.353C60.3465 185.307 60.3613 185.262 60.3849 185.221C60.4085 185.181 60.4404 185.146 60.4786 185.119C60.5168 185.091 60.5603 185.073 60.6063 185.064C60.6522 185.054 60.6996 185.055 60.7453 185.066C60.7909 185.076 60.8338 185.097 60.871 185.125L63.2323 186.471L66.0187 180.509C66.0352 180.467 66.06 180.43 66.0915 180.398C66.123 180.366 66.1606 180.342 66.202 180.325C66.2433 180.308 66.2877 180.3 66.3323 180.301C66.3769 180.302 66.4209 180.312 66.4616 180.33C66.5023 180.348 66.5388 180.375 66.569 180.408C66.5992 180.44 66.6225 180.479 66.6374 180.521C66.6522 180.563 66.6584 180.608 66.6556 180.652C66.6527 180.697 66.6409 180.74 66.6208 180.78L63.681 187.073C63.6232 187.141 63.5441 187.187 63.4567 187.203Z" fill="white"/>
<path d="M139.065 152.87C139.065 152.964 124.897 158.017 107.305 164.18C89.7136 170.343 75.4277 175.243 75.4277 175.149C75.4277 175.054 89.5955 170.001 107.199 163.85C124.802 157.699 139.029 152.787 139.065 152.87Z" fill="#9CADC2"/>
<path d="M105.676 175.55C105.341 175.721 104.994 175.867 104.637 175.987L101.78 177.05C99.4189 177.923 96.0304 179.116 92.335 180.415C88.6396 181.713 85.2511 182.858 82.8898 183.685L79.9972 184.641C79.6465 184.768 79.2876 184.871 78.9229 184.948C79.2516 184.772 79.5953 184.626 79.95 184.511L82.8072 183.449C85.1685 182.575 88.5687 181.383 92.2524 180.084C95.936 178.785 99.3363 177.64 101.698 176.814L104.578 175.857C104.938 175.734 105.305 175.632 105.676 175.55Z" fill="#9CADC2"/>
<path d="M140.635 157.215C140.635 157.297 126.467 162.362 108.876 168.514C91.2839 174.665 76.998 179.588 76.998 179.494C76.998 179.399 91.1658 174.346 108.758 168.183C126.349 162.02 140.552 157.12 140.635 157.215Z" fill="#9CADC2"/>
<path d="M72.3833 200.767L66.6224 202.784C64.5177 203.521 63.409 205.825 64.1461 207.93L66.1635 213.69C66.9006 215.795 69.2043 216.904 71.309 216.167L77.0699 214.149C79.1746 213.412 80.2833 211.109 79.5462 209.004L77.5288 203.243C76.7917 201.138 74.488 200.03 72.3833 200.767Z" fill="#FFB722"/>
<path d="M71.6736 210.698C71.6326 210.716 71.5884 210.725 71.5438 210.725C71.4991 210.725 71.4549 210.716 71.4139 210.698L68.7692 209.163C68.6941 209.118 68.64 209.044 68.619 208.959C68.598 208.874 68.6117 208.784 68.6571 208.709C68.7025 208.633 68.7759 208.579 68.8611 208.558C68.9464 208.537 69.0365 208.551 69.1116 208.596L71.4729 209.942L74.2593 204.039C74.2953 203.959 74.3616 203.897 74.4435 203.866C74.5254 203.835 74.6162 203.838 74.6961 203.874C74.7738 203.912 74.8341 203.979 74.8648 204.06C74.8955 204.141 74.8943 204.23 74.8614 204.311L71.9098 210.604C71.8461 210.664 71.7615 210.698 71.6736 210.698Z" fill="white"/>
<path d="M147.294 176.365C147.294 176.459 133.126 181.513 115.535 187.664C97.9431 193.815 83.6572 198.738 83.6572 198.644C83.6572 198.549 97.825 193.496 115.417 187.345C133.008 181.194 147.259 176.247 147.294 176.365Z" fill="#9CADC2"/>
<path d="M113.894 199.045C113.565 199.221 113.222 199.367 112.867 199.482L110.01 200.544C107.648 201.418 104.248 202.61 100.565 203.909C96.8809 205.208 93.4806 206.353 91.1193 207.18L88.2267 208.136C87.542 208.348 87.1523 208.455 87.1523 208.443C87.4811 208.267 87.8248 208.121 88.1795 208.006L91.0367 206.943C93.398 206.07 96.7983 204.877 100.482 203.579C104.166 202.28 107.566 201.135 109.927 200.308L112.82 199.352C113.17 199.225 113.529 199.123 113.894 199.045Z" fill="#9CADC2"/>
<path d="M148.818 180.71C148.818 180.792 134.65 185.857 117.058 192.009C99.4665 198.16 85.1807 203.071 85.1807 202.989C85.1807 202.906 99.3484 197.841 116.94 191.678C134.532 185.515 148.782 180.615 148.818 180.71Z" fill="#9CADC2"/>
<path d="M22.6768 79.7879L25.5575 88.0524C26.3632 90.3532 28.0494 92.24 30.2455 93.2982C32.4417 94.3565 34.968 94.4995 37.2696 93.6959L97.8369 72.4443C98.9755 72.0467 100.025 71.4285 100.924 70.6251C101.824 69.8216 102.556 68.8487 103.079 67.762C103.602 66.6753 103.906 65.496 103.973 64.2918C104.039 63.0876 103.868 61.882 103.469 60.744L100.588 52.4795L22.6768 79.7879Z" fill="#9CADC2"/>
<path d="M62.4412 68.5951C60.8323 69.1612 59.0915 69.2372 57.4394 68.8134C55.7872 68.3897 54.2979 67.4852 53.1601 66.2146C52.0222 64.944 51.287 63.3643 51.0474 61.6756C50.8078 59.9868 51.0747 58.265 51.8142 56.728C52.5537 55.191 53.7327 53.908 55.2018 53.0415C56.6709 52.1749 58.3641 51.7637 60.067 51.8599C61.7699 51.9562 63.406 52.5555 64.7681 53.5821C66.1302 54.6087 67.1571 56.0164 67.7187 57.6269C68.4701 59.7813 68.3364 62.1458 67.3471 64.2019C66.3578 66.2579 64.5936 67.8378 62.4412 68.5951ZM57.8367 55.4545C56.8444 55.801 55.9771 56.434 55.3446 57.2734C54.7121 58.1129 54.3429 59.1211 54.2835 60.1705C54.2242 61.2199 54.4774 62.2634 55.0112 63.1688C55.5451 64.0742 56.3354 64.801 57.2824 65.2571C58.2293 65.7132 59.2903 65.8782 60.331 65.7312C61.3718 65.5842 62.3455 65.1318 63.1291 64.4312C63.9127 63.7307 64.4708 62.8134 64.733 61.7956C64.9951 60.7777 64.9495 59.705 64.6018 58.7131C64.1361 57.3844 63.162 56.2949 61.8935 55.6839C60.6251 55.0729 59.166 54.9904 57.8367 55.4545Z" fill="#9CADC2"/>
<path d="M110.847 90.0595C110.847 90.213 94.9321 95.9627 75.1798 102.87C55.4275 109.776 39.3707 115.266 39.3117 115.113C39.2527 114.959 55.2268 109.21 74.9791 102.303C94.7313 95.396 110.788 89.8588 110.847 90.0595Z" fill="#9CADC2"/>
<path d="M90.3865 92.952C90.3865 93.1055 83.4207 95.7147 74.6957 98.7726C65.9707 101.83 58.8514 104.227 58.7924 104.015C58.7333 103.802 65.77 101.252 74.495 98.1941C83.22 95.1362 90.3393 92.7985 90.3865 92.952Z" fill="#9CADC2"/>
<g filter="url(#filter0_d_713_20054)">
<rect x="107.759" y="77" width="274.482" height="238" rx="16" fill="white"/>
<path d="M268.231 201.456C268.231 203.225 267.706 204.954 266.723 206.425C265.741 207.896 264.344 209.042 262.71 209.719C261.075 210.396 259.277 210.573 257.542 210.228C255.807 209.883 254.213 209.031 252.962 207.78C251.712 206.529 250.86 204.936 250.515 203.201C250.17 201.466 250.347 199.667 251.024 198.033C251.701 196.399 252.847 195.002 254.318 194.019C255.789 193.036 257.518 192.512 259.287 192.512C261.659 192.512 263.934 193.454 265.611 195.131C267.288 196.809 268.231 199.084 268.231 201.456Z" fill="#083167"/>
<path d="M232.673 211.016C237.942 211.016 242.213 206.736 242.213 201.456C242.213 196.176 237.942 191.896 232.673 191.896C227.404 191.896 223.133 196.176 223.133 201.456C223.133 206.736 227.404 211.016 232.673 211.016Z" fill="#083167"/>
<path d="M212.231 194.688C217.824 194.688 222.358 190.145 222.358 184.541C222.358 178.938 217.824 174.395 212.231 174.395C206.638 174.395 202.104 178.938 202.104 184.541C202.104 190.145 206.638 194.688 212.231 194.688Z" fill="#083167"/>
<path d="M208.087 169.128C213.927 169.128 218.661 164.381 218.661 158.525C218.661 152.668 213.927 147.921 208.087 147.921C202.248 147.921 197.514 152.668 197.514 158.525C197.514 164.381 202.248 169.128 208.087 169.128Z" fill="#083167"/>
<path d="M221.036 146.718C227.073 146.718 231.968 141.811 231.968 135.757C231.968 129.703 227.073 124.795 221.036 124.795C214.999 124.795 210.104 129.703 210.104 135.757C210.104 141.811 214.999 146.718 221.036 146.718Z" fill="#083167"/>
<path d="M245.93 138.699C252.511 138.699 257.845 133.35 257.845 126.753C257.845 120.156 252.511 114.808 245.93 114.808C239.349 114.808 234.015 120.156 234.015 126.753C234.015 133.35 239.349 138.699 245.93 138.699Z" fill="#083167"/>
<path d="M287.69 184.333C287.686 186.044 287.175 187.716 286.221 189.136C285.268 190.557 283.914 191.664 282.332 192.316C280.75 192.968 279.011 193.136 277.333 192.8C275.655 192.464 274.115 191.638 272.906 190.427C271.698 189.215 270.875 187.673 270.543 185.994C270.21 184.316 270.383 182.577 271.039 180.996C271.694 179.416 272.804 178.065 274.227 177.115C275.65 176.164 277.323 175.657 279.034 175.657C280.172 175.659 281.298 175.884 282.349 176.321C283.4 176.757 284.355 177.397 285.158 178.202C285.962 179.008 286.599 179.964 287.034 181.016C287.468 182.068 287.691 183.195 287.69 184.333Z" fill="#083167"/>
<path d="M283.664 166.286C288.098 166.286 291.693 162.682 291.693 158.237C291.693 153.791 288.098 150.187 283.664 150.187C279.229 150.187 275.634 153.791 275.634 158.237C275.634 162.682 279.229 166.286 283.664 166.286Z" fill="#083167"/>
<path d="M270.307 142.803C274.357 142.803 277.641 139.51 277.641 135.449C277.641 131.387 274.357 128.095 270.307 128.095C266.256 128.095 262.973 131.387 262.973 135.449C262.973 139.51 266.256 142.803 270.307 142.803Z" fill="#083167"/>
<g opacity="0.5">
<path d="M268.231 201.456C268.231 203.225 267.706 204.954 266.723 206.425C265.741 207.896 264.344 209.042 262.71 209.719C261.075 210.396 259.277 210.573 257.542 210.228C255.807 209.883 254.213 209.031 252.962 207.78C251.712 206.529 250.86 204.936 250.515 203.201C250.17 201.466 250.347 199.667 251.024 198.033C251.701 196.399 252.847 195.002 254.318 194.019C255.789 193.036 257.518 192.512 259.287 192.512C261.659 192.512 263.934 193.454 265.611 195.131C267.288 196.809 268.231 199.084 268.231 201.456Z" fill="white"/>
</g>
<g opacity="0.4">
<path d="M232.673 211.016C237.942 211.016 242.213 206.736 242.213 201.456C242.213 196.176 237.942 191.896 232.673 191.896C227.404 191.896 223.133 196.176 223.133 201.456C223.133 206.736 227.404 211.016 232.673 211.016Z" fill="white"/>
</g>
<g opacity="0.3">
<path d="M212.231 194.688C217.824 194.688 222.358 190.145 222.358 184.541C222.358 178.938 217.824 174.395 212.231 174.395C206.638 174.395 202.104 178.938 202.104 184.541C202.104 190.145 206.638 194.688 212.231 194.688Z" fill="white"/>
</g>
<g opacity="0.2">
<path d="M208.087 169.128C213.927 169.128 218.661 164.381 218.661 158.525C218.661 152.668 213.927 147.921 208.087 147.921C202.248 147.921 197.514 152.668 197.514 158.525C197.514 164.381 202.248 169.128 208.087 169.128Z" fill="white"/>
</g>
<g opacity="0.1">
<path d="M221.036 146.718C227.073 146.718 231.968 141.811 231.968 135.757C231.968 129.703 227.073 124.795 221.036 124.795C214.999 124.795 210.104 129.703 210.104 135.757C210.104 141.811 214.999 146.718 221.036 146.718Z" fill="white"/>
</g>
<g opacity="0.2">
<path d="M245.93 138.699C252.511 138.699 257.845 133.35 257.845 126.753C257.845 120.156 252.511 114.808 245.93 114.808C239.349 114.808 234.015 120.156 234.015 126.753C234.015 133.35 239.349 138.699 245.93 138.699Z" fill="white"/>
</g>
<g opacity="0.6">
<path d="M287.69 184.333C287.686 186.044 287.175 187.716 286.221 189.136C285.268 190.557 283.914 191.664 282.332 192.316C280.75 192.968 279.011 193.136 277.333 192.8C275.655 192.464 274.115 191.638 272.906 190.427C271.698 189.215 270.875 187.673 270.543 185.994C270.21 184.316 270.383 182.577 271.039 180.996C271.694 179.416 272.804 178.065 274.227 177.115C275.65 176.164 277.323 175.657 279.034 175.657C280.172 175.659 281.298 175.884 282.349 176.321C283.4 176.757 284.355 177.397 285.158 178.202C285.962 179.008 286.599 179.964 287.034 181.016C287.468 182.068 287.691 183.195 287.69 184.333Z" fill="white"/>
</g>
<g opacity="0.7">
<path d="M283.664 166.286C288.098 166.286 291.693 162.682 291.693 158.237C291.693 153.791 288.098 150.187 283.664 150.187C279.229 150.187 275.634 153.791 275.634 158.237C275.634 162.682 279.229 166.286 283.664 166.286Z" fill="white"/>
</g>
<g opacity="0.8">
<path d="M270.307 142.803C274.357 142.803 277.641 139.51 277.641 135.449C277.641 131.387 274.357 128.095 270.307 128.095C266.256 128.095 262.973 131.387 262.973 135.449C262.973 139.51 266.256 142.803 270.307 142.803Z" fill="white"/>
</g>
<path d="M294.158 247.726H195.148C188.99 247.726 183.998 252.718 183.998 258.876V260.725C183.998 266.883 188.99 271.875 195.148 271.875H294.158C300.316 271.875 305.309 266.883 305.309 260.725V258.876C305.309 252.718 300.316 247.726 294.158 247.726Z" fill="#F5F5F5"/>
<path d="M255.971 248.117H198.414C190.562 248.117 184.196 252.965 184.196 258.945V260.741C184.196 266.721 190.562 271.569 198.414 271.569H255.971C263.823 271.569 270.189 266.721 270.189 260.741V258.945C270.189 252.965 263.823 248.117 255.971 248.117Z" fill="#FFB722"/>
<g opacity="0.2">
<path d="M213.324 247.726L204.261 271.587H210.919L219.376 247.726H213.324Z" fill="white"/>
</g>
<g opacity="0.2">
<path d="M229.682 247.726L220.608 271.587H227.277L235.724 247.726H229.682Z" fill="white"/>
<path d="M247.123 247.726L238.05 271.587H244.718L253.165 247.726H247.123Z" fill="white"/>
<path d="M264.565 247.726L255.492 271.587H262.16L270.608 247.726H264.565Z" fill="white"/>
</g>
<g opacity="0.2">
<path d="M197.434 247.696L189.096 269.639C190.877 270.798 192.935 271.46 195.058 271.557L203.515 247.706L197.434 247.696Z" fill="white"/>
</g>
<path d="M293.94 271.875C294.854 271.82 295.761 271.687 296.653 271.477C299.213 270.823 301.463 269.294 303.013 267.154C304.134 265.624 304.842 263.83 305.07 261.947C305.182 260.867 305.209 259.781 305.15 258.697C305.106 257.532 304.878 256.382 304.474 255.289C303.792 253.414 302.622 251.756 301.084 250.486C299.547 249.216 297.698 248.379 295.728 248.064C294.247 247.908 292.755 247.858 291.266 247.915L195.367 247.994C194.225 248.011 193.092 248.185 191.998 248.511C190.92 248.871 189.9 249.383 188.967 250.031C187.139 251.344 185.753 253.181 184.992 255.298C183.65 259.482 184.087 264.531 186.979 267.77C188.387 269.401 190.237 270.589 192.306 271.189C194.293 271.805 196.51 271.577 198.636 271.626H211.098L254.208 271.676L283.276 271.765H291.227H293.274H293.979H293.274H291.227L283.276 271.815L254.208 271.895L211.098 271.954H195.446C194.344 271.945 193.248 271.792 192.187 271.497C190 270.869 188.045 269.614 186.565 267.886C185.085 266.159 184.144 264.035 183.859 261.778C183.743 260.639 183.716 259.493 183.779 258.349C183.828 257.184 184.059 256.034 184.465 254.941C185.278 252.712 186.751 250.784 188.689 249.415C189.665 248.74 190.732 248.208 191.859 247.835C193.004 247.491 194.191 247.307 195.387 247.289L291.286 247.358C292.803 247.359 294.318 247.472 295.818 247.696C297.841 248.028 299.738 248.896 301.311 250.21C302.884 251.525 304.076 253.237 304.762 255.169C306.213 259.9 305.358 264.521 303.192 267.254C301.605 269.416 299.301 270.944 296.692 271.567C296.304 271.666 295.909 271.736 295.51 271.775C295.224 271.824 294.935 271.848 294.645 271.845C294.178 271.885 293.94 271.875 293.94 271.875Z" fill="#263238"/>
</g>
<defs>
<filter id="filter0_d_713_20054" x="25.7588" y="0" width="442.481" height="406" filterUnits="userSpaceOnUse" color-interpolation-filters="sRGB">
<feFlood flood-opacity="0" result="BackgroundImageFix"/>
<feColorMatrix in="SourceAlpha" type="matrix" values="0 0 0 0 0 0 0 0 0 0 0 0 0 0 0 0 0 0 127 0" result="hardAlpha"/>
<feOffset dx="2" dy="7"/>
<feGaussianBlur stdDeviation="42"/>
<feComposite in2="hardAlpha" operator="out"/>
<feColorMatrix type="matrix" values="0 0 0 0 0 0 0 0 0 0 0 0 0 0 0 0 0 0 0.25 0"/>
<feBlend mode="normal" in2="BackgroundImageFix" result="effect1_dropShadow_713_20054"/>
<feBlend mode="normal" in="SourceGraphic" in2="effect1_dropShadow_713_20054" result="shape"/>
</filter>
</defs>
</svg>
