<svg width="545" height="309" viewBox="0 0 545 309" fill="none" xmlns="http://www.w3.org/2000/svg">
<path d="M526.819 0.884277H257.174C248.082 0.884277 240.712 8.25461 240.712 17.3464V237.866C240.712 246.958 248.082 254.328 257.174 254.328H526.819C535.911 254.328 543.282 246.958 543.282 237.866V17.3464C543.282 8.25463 535.911 0.884277 526.819 0.884277Z" fill="white"/>
<path d="M544.166 238.749C544.166 247.841 536.795 255.211 527.703 255.211H256.29C247.198 255.211 239.828 247.841 239.828 238.749V16.4622C239.828 7.37036 247.198 0 256.29 0H527.703C536.795 0 544.166 7.37036 544.166 16.4622V238.749ZM241.596 236.982C241.596 246.073 248.966 253.444 258.058 253.444H525.936C535.027 253.444 542.398 246.073 542.398 236.982V18.2299C542.398 9.13812 535.027 1.76776 525.936 1.76776H258.058C248.966 1.76776 241.596 9.13811 241.596 18.2299V236.982Z" fill="#EBEBEB"/>
<path d="M262.95 12.6045C262.95 13.6534 262.639 14.6788 262.057 15.5509C261.474 16.423 260.646 17.1028 259.677 17.5042C258.707 17.9056 257.641 18.0106 256.612 17.8059C255.584 17.6013 254.639 17.0962 253.897 16.3545C253.155 15.6129 252.65 14.6679 252.446 13.6392C252.241 12.6104 252.346 11.5441 252.747 10.5751C253.149 9.60604 253.829 8.77778 254.701 8.19505C255.573 7.61232 256.598 7.30127 257.647 7.30127C259.054 7.30127 260.402 7.86003 261.397 8.85459C262.392 9.84914 262.95 11.198 262.95 12.6045Z" fill="#395A85"/>
<path d="M284.569 12.6045C284.569 13.6534 284.258 14.6788 283.676 15.5509C283.093 16.423 282.265 17.1028 281.296 17.5042C280.327 17.9056 279.26 18.0106 278.232 17.8059C277.203 17.6013 276.258 17.0962 275.516 16.3545C274.775 15.6129 274.269 14.6679 274.065 13.6392C273.86 12.6104 273.965 11.5441 274.367 10.5751C274.768 9.60604 275.448 8.77778 276.32 8.19505C277.192 7.61232 278.217 7.30127 279.266 7.30127C280.673 7.30127 282.022 7.86003 283.016 8.85459C284.011 9.84914 284.569 11.198 284.569 12.6045Z" fill="#EBEBEB"/>
<path d="M306.19 12.6045C306.19 13.6534 305.879 14.6788 305.296 15.5509C304.713 16.423 303.885 17.1028 302.916 17.5042C301.947 17.9056 300.88 18.0106 299.852 17.8059C298.823 17.6013 297.878 17.0962 297.136 16.3545C296.395 15.6129 295.89 14.6679 295.685 13.6392C295.48 12.6104 295.585 11.5441 295.987 10.5751C296.388 9.60604 297.068 8.77778 297.94 8.19505C298.812 7.61232 299.837 7.30127 300.886 7.30127C302.293 7.30127 303.642 7.86003 304.636 8.85459C305.631 9.84914 306.19 11.198 306.19 12.6045Z" fill="#FFB722"/>
<path d="M543.282 23.3521H240.712V25.1198H543.282V23.3521Z" fill="#EBEBEB"/>
<path d="M303.75 162.811C303.75 143.823 311.293 125.612 324.719 112.186C338.146 98.7593 356.356 91.2163 375.344 91.2163V234.405C356.356 234.405 338.146 226.862 324.719 213.435C311.293 200.009 303.75 181.799 303.75 162.811Z" fill="#083167"/>
<path d="M313.844 162.811C313.844 150.751 317.39 138.957 324.041 128.897C330.692 118.836 340.154 110.953 351.25 106.229C362.346 101.504 374.587 100.146 386.449 102.323C398.31 104.501 409.27 110.118 417.965 118.476L375.344 162.811V224.329C367.266 224.329 359.268 222.738 351.805 219.646C344.342 216.554 337.562 212.023 331.851 206.31C326.139 200.597 321.61 193.815 318.52 186.352C315.43 178.888 313.841 170.889 313.844 162.811Z" fill="#395A85"/>
<path d="M323.762 162.811C323.762 149.125 329.198 136.001 338.875 126.324C348.552 116.646 361.677 111.21 375.363 111.21C389.048 111.21 402.173 116.646 411.85 126.324C421.527 136.001 426.964 149.125 426.964 162.811H375.363V214.429C368.585 214.429 361.873 213.094 355.612 210.5C349.35 207.906 343.661 204.103 338.869 199.31C334.077 194.516 330.277 188.826 327.685 182.563C325.092 176.301 323.759 169.589 323.762 162.811Z" fill="#6B83A4"/>
<path d="M334.438 162.811C334.439 156.101 336.09 149.495 339.245 143.573C342.4 137.652 346.962 132.597 352.53 128.854C358.098 125.11 364.501 122.794 371.176 122.107C377.85 121.421 384.591 122.386 390.804 124.918C397.017 127.449 402.513 131.47 406.807 136.625C411.101 141.781 414.062 147.913 415.428 154.482C416.794 161.051 416.525 167.855 414.643 174.295C412.761 180.735 409.325 186.613 404.636 191.413L375.362 162.811V203.734C369.987 203.736 364.665 202.68 359.699 200.624C354.732 198.568 350.22 195.554 346.42 191.753C342.619 187.953 339.605 183.44 337.549 178.474C335.493 173.508 334.436 168.185 334.438 162.811Z" fill="#FFB722"/>
<path d="M442.112 162.598H375.344V163.04H442.112V162.598Z" fill="#EBEBEB"/>
<path d="M440.045 165.374C441.46 165.374 442.608 164.226 442.608 162.81C442.608 161.395 441.46 160.247 440.045 160.247C438.629 160.247 437.481 161.395 437.481 162.81C437.481 164.226 438.629 165.374 440.045 165.374Z" fill="#9CADC2"/>
<path d="M455.442 161.043L453.48 165.728C453.445 165.805 453.387 165.87 453.315 165.914C453.242 165.958 453.158 165.979 453.074 165.975H452.897C452.792 165.925 452.71 165.837 452.667 165.729C452.624 165.621 452.624 165.5 452.667 165.392L454.435 161.344H452.384C452.27 161.339 452.162 161.291 452.083 161.208C452.004 161.126 451.96 161.016 451.96 160.902C451.96 160.788 452.004 160.678 452.083 160.595C452.162 160.513 452.27 160.464 452.384 160.46H455.177C455.229 160.446 455.284 160.446 455.336 160.46V160.707L455.442 161.043Z" fill="#9CADC2"/>
<path d="M461.063 161.821C461.063 161.474 461.2 161.142 461.446 160.896C461.691 160.651 462.024 160.513 462.371 160.513C462.718 160.513 463.05 160.651 463.296 160.896C463.541 161.142 463.679 161.474 463.679 161.821C463.688 162.002 463.661 162.183 463.599 162.353C463.537 162.523 463.441 162.679 463.317 162.811C463.193 162.943 463.044 163.049 462.879 163.122C462.713 163.195 462.534 163.234 462.353 163.236C462.174 163.231 461.998 163.191 461.835 163.117C461.673 163.042 461.527 162.936 461.406 162.804C461.285 162.672 461.193 162.517 461.134 162.348C461.075 162.179 461.051 162 461.063 161.821ZM462.972 161.821C462.972 161.379 462.707 161.008 462.353 161.008C461.999 161.008 461.77 161.379 461.77 161.804C461.77 162.246 462.017 162.617 462.371 162.617C462.724 162.617 462.972 162.246 462.972 161.821ZM461.964 165.516L465.606 160.549C465.635 160.505 465.674 160.469 465.721 160.445C465.767 160.42 465.818 160.407 465.871 160.407C465.955 160.407 466.036 160.441 466.096 160.5C466.155 160.56 466.189 160.641 466.189 160.725C466.206 160.789 466.206 160.856 466.189 160.92L462.565 165.887C462.531 165.93 462.488 165.965 462.44 165.99C462.391 166.014 462.337 166.027 462.282 166.029C462.198 166.029 462.117 165.995 462.057 165.935C461.998 165.876 461.964 165.795 461.964 165.711C461.947 165.647 461.947 165.58 461.964 165.516ZM464.404 164.65C464.404 164.303 464.541 163.97 464.787 163.725C465.032 163.48 465.365 163.342 465.712 163.342C466.059 163.342 466.391 163.48 466.637 163.725C466.882 163.97 467.02 164.303 467.02 164.65C467.029 164.831 467.002 165.012 466.94 165.182C466.878 165.352 466.782 165.507 466.658 165.64C466.535 165.772 466.385 165.877 466.22 165.95C466.054 166.023 465.875 166.062 465.694 166.064C465.345 166.037 465.021 165.873 464.793 165.608C464.564 165.343 464.45 164.999 464.474 164.65H464.404ZM466.313 164.65C466.313 164.208 466.065 163.837 465.694 163.837C465.323 163.837 465.111 164.208 465.111 164.632C465.111 165.074 465.358 165.445 465.712 165.445C466.065 165.445 466.242 165.074 466.242 164.65H466.313Z" fill="#9CADC2"/>
<path d="M480.244 170.253H451.818V170.925H480.244V170.253Z" fill="#C7C7C7"/>
<path d="M480.244 172.091H451.818V172.763H480.244V172.091Z" fill="#C7C7C7"/>
<path d="M480.244 173.948H451.818V174.619H480.244V173.948Z" fill="#C7C7C7"/>
<path d="M480.244 175.803H451.818V176.475H480.244V175.803Z" fill="#C7C7C7"/>
<path d="M480.244 177.659H451.818V178.331H480.244V177.659Z" fill="#C7C7C7"/>
<path d="M480.244 179.516H451.818V180.188H480.244V179.516Z" fill="#C7C7C7"/>
<path d="M480.244 181.373H451.818V182.044H480.244V181.373Z" fill="#C7C7C7"/>
<path d="M442.131 204.299H417.435L417.364 204.246L375.327 162.969L375.628 162.651L417.612 203.857H442.131V204.299Z" fill="#EBEBEB"/>
<path d="M442.608 204.088C442.608 204.595 442.458 205.091 442.176 205.512C441.894 205.934 441.494 206.262 441.026 206.456C440.557 206.65 440.042 206.701 439.545 206.602C439.047 206.503 438.591 206.259 438.232 205.901C437.874 205.542 437.63 205.085 437.531 204.588C437.432 204.091 437.483 203.576 437.677 203.107C437.871 202.639 438.199 202.239 438.621 201.957C439.042 201.675 439.538 201.525 440.045 201.525C440.724 201.525 441.376 201.795 441.857 202.276C442.338 202.756 442.608 203.408 442.608 204.088Z" fill="#FFB722"/>
<path d="M455.636 205.414C455.637 205.741 455.553 206.063 455.392 206.348C455.231 206.633 454.999 206.872 454.718 207.04C454.438 207.209 454.118 207.301 453.791 207.309C453.463 207.317 453.14 207.24 452.851 207.085C452.563 206.931 452.319 206.704 452.145 206.427C451.97 206.15 451.871 205.832 451.856 205.505C451.84 205.178 451.911 204.853 452.059 204.561C452.207 204.269 452.429 204.021 452.702 203.84C452.536 203.615 452.449 203.342 452.455 203.063C452.492 202.744 452.645 202.45 452.884 202.237C453.124 202.024 453.433 201.906 453.754 201.906C454.074 201.906 454.384 202.024 454.624 202.237C454.863 202.45 455.016 202.744 455.053 203.063C455.06 203.345 454.966 203.621 454.788 203.84C455.047 204.013 455.26 204.247 455.408 204.522C455.556 204.796 455.634 205.102 455.636 205.414ZM454.788 205.414C454.783 205.143 454.674 204.885 454.483 204.694C454.291 204.502 454.033 204.393 453.763 204.388C453.49 204.393 453.23 204.502 453.036 204.693C452.842 204.883 452.729 205.142 452.72 205.414C452.729 205.686 452.842 205.944 453.036 206.135C453.23 206.326 453.49 206.435 453.763 206.439C454.028 206.43 454.28 206.318 454.465 206.126C454.65 205.935 454.753 205.68 454.753 205.414H454.788ZM453.303 203.063C453.303 203.185 453.351 203.301 453.438 203.388C453.524 203.474 453.641 203.522 453.763 203.522C453.867 203.501 453.961 203.445 454.028 203.363C454.096 203.281 454.133 203.178 454.133 203.071C454.133 202.965 454.096 202.862 454.028 202.78C453.961 202.698 453.867 202.641 453.763 202.621C453.643 202.611 453.525 202.648 453.433 202.724C453.34 202.799 453.281 202.908 453.268 203.027L453.303 203.063Z" fill="#9CADC2"/>
<path d="M459.808 203.911C459.993 204.093 460.14 204.311 460.24 204.551C460.34 204.79 460.392 205.048 460.392 205.307C460.383 205.825 460.173 206.319 459.807 206.685C459.441 207.051 458.947 207.26 458.43 207.27C458.172 207.27 457.918 207.219 457.681 207.119C457.444 207.018 457.229 206.871 457.051 206.686C456.966 206.602 456.919 206.487 456.919 206.368C456.919 206.249 456.966 206.134 457.051 206.05C457.135 205.965 457.25 205.918 457.369 205.918C457.488 205.918 457.603 205.965 457.687 206.05C457.785 206.153 457.903 206.234 458.034 206.289C458.165 206.343 458.305 206.37 458.447 206.368C458.726 206.359 458.99 206.245 459.188 206.048C459.385 205.851 459.499 205.586 459.508 205.307C459.508 205.166 459.48 205.026 459.426 204.895C459.371 204.765 459.291 204.646 459.19 204.547C459.094 204.447 458.979 204.367 458.851 204.312C458.724 204.257 458.586 204.229 458.447 204.229C458.306 204.229 458.166 204.257 458.035 204.311C457.905 204.366 457.786 204.446 457.687 204.547C457.646 204.59 457.596 204.624 457.542 204.647C457.487 204.671 457.428 204.683 457.369 204.683C457.31 204.683 457.251 204.671 457.196 204.647C457.141 204.624 457.092 204.59 457.051 204.547L456.962 204.441C456.945 204.396 456.945 204.345 456.962 204.3L457.192 202.249C457.199 202.176 457.221 202.104 457.258 202.04C457.294 201.976 457.344 201.921 457.404 201.878H457.599H459.932C460.049 201.878 460.162 201.924 460.245 202.007C460.328 202.09 460.374 202.203 460.374 202.32C460.374 202.437 460.328 202.55 460.245 202.632C460.162 202.715 460.049 202.762 459.932 202.762H457.988L457.899 203.557C458.075 203.531 458.254 203.531 458.43 203.557C458.918 203.491 459.412 203.618 459.808 203.911Z" fill="#9CADC2"/>
<path d="M461.612 203.099C461.591 202.915 461.609 202.729 461.664 202.553C461.72 202.377 461.812 202.215 461.934 202.077C462.057 201.939 462.208 201.829 462.376 201.753C462.545 201.678 462.727 201.639 462.912 201.639C463.096 201.639 463.279 201.678 463.447 201.753C463.616 201.829 463.766 201.939 463.889 202.077C464.012 202.215 464.104 202.377 464.159 202.553C464.215 202.729 464.232 202.915 464.211 203.099C464.223 203.279 464.198 203.459 464.138 203.629C464.078 203.799 463.984 203.955 463.861 204.087C463.739 204.22 463.591 204.326 463.426 204.399C463.261 204.472 463.083 204.511 462.903 204.513C462.723 204.511 462.546 204.472 462.382 204.399C462.218 204.326 462.071 204.219 461.95 204.086C461.829 203.954 461.736 203.798 461.678 203.628C461.62 203.458 461.598 203.278 461.612 203.099ZM463.504 203.099C463.504 202.657 463.256 202.303 462.903 202.303C462.549 202.303 462.302 202.657 462.302 203.081C462.302 203.541 462.567 203.894 462.92 203.894C463.274 203.894 463.504 203.523 463.504 203.099ZM462.514 206.793L466.138 201.844C466.162 201.794 466.2 201.753 466.247 201.725C466.294 201.696 466.348 201.682 466.403 201.684C466.445 201.684 466.486 201.693 466.525 201.709C466.563 201.725 466.598 201.748 466.628 201.778C466.658 201.807 466.681 201.842 466.697 201.881C466.713 201.919 466.721 201.961 466.721 202.003C466.736 202.072 466.736 202.145 466.721 202.215L463.097 207.164C463.065 207.209 463.023 207.246 462.974 207.271C462.924 207.295 462.87 207.307 462.814 207.306C462.773 207.306 462.733 207.298 462.695 207.281C462.658 207.265 462.624 207.241 462.595 207.212C462.567 207.182 462.546 207.147 462.532 207.108C462.517 207.07 462.512 207.029 462.514 206.988C462.497 206.924 462.497 206.857 462.514 206.793ZM464.953 205.927C464.941 205.747 464.966 205.567 465.026 205.397C465.086 205.227 465.181 205.071 465.303 204.938C465.425 204.806 465.574 204.7 465.738 204.627C465.903 204.554 466.081 204.515 466.262 204.513C466.44 204.515 466.615 204.553 466.778 204.625C466.941 204.698 467.087 204.802 467.208 204.933C467.328 205.064 467.421 205.218 467.481 205.386C467.54 205.554 467.564 205.732 467.552 205.909C467.564 206.089 467.539 206.27 467.479 206.44C467.419 206.61 467.325 206.766 467.202 206.898C467.08 207.03 466.932 207.136 466.767 207.21C466.602 207.283 466.424 207.322 466.244 207.324C466.066 207.322 465.89 207.283 465.727 207.211C465.565 207.139 465.419 207.034 465.298 206.903C465.177 206.773 465.084 206.619 465.025 206.451C464.966 206.283 464.941 206.105 464.953 205.927ZM466.845 205.927C466.845 205.485 466.597 205.132 466.244 205.132C465.89 205.132 465.643 205.485 465.643 205.909C465.643 206.369 465.908 206.722 466.262 206.722C466.615 206.722 466.845 206.351 466.845 205.927Z" fill="#9CADC2"/>
<path d="M480.244 211.53H451.818V212.202H480.244V211.53Z" fill="#C7C7C7"/>
<path d="M480.244 213.386H451.818V214.057H480.244V213.386Z" fill="#C7C7C7"/>
<path d="M480.244 215.225H451.818V215.896H480.244V215.225Z" fill="#C7C7C7"/>
<path d="M480.244 217.081H451.818V217.753H480.244V217.081Z" fill="#C7C7C7"/>
<path d="M480.244 218.937H451.818V219.609H480.244V218.937Z" fill="#C7C7C7"/>
<path d="M480.244 220.793H451.818V221.465H480.244V220.793Z" fill="#C7C7C7"/>
<path d="M480.244 222.649H451.818V223.321H480.244V222.649Z" fill="#C7C7C7"/>
<path d="M375.575 162.811H375.133V71.1704H442.131V71.6123H375.575V162.811Z" fill="#EBEBEB"/>
<path d="M440.045 73.963C441.46 73.963 442.608 72.8153 442.608 71.3997C442.608 69.9841 441.46 68.8364 440.045 68.8364C438.629 68.8364 437.481 69.9841 437.481 71.3997C437.481 72.8153 438.629 73.963 440.045 73.963Z" fill="#395A85"/>
<path d="M454.822 71.2234C455.009 71.4048 455.156 71.622 455.257 71.862C455.357 72.102 455.408 72.3599 455.405 72.62C455.395 73.1374 455.186 73.6312 454.822 73.9988C454.643 74.1839 454.429 74.3311 454.192 74.4313C453.955 74.5316 453.701 74.5828 453.443 74.5821C453.186 74.5828 452.931 74.5316 452.694 74.4313C452.457 74.3311 452.243 74.1839 452.064 73.9988C452.023 73.957 451.989 73.9074 451.967 73.8528C451.944 73.7982 451.933 73.7397 451.933 73.6806C451.933 73.6215 451.944 73.563 451.967 73.5084C451.989 73.4538 452.023 73.4042 452.064 73.3624C452.106 73.3206 452.156 73.2875 452.21 73.2649C452.265 73.2422 452.324 73.2306 452.383 73.2306C452.442 73.2306 452.5 73.2422 452.555 73.2649C452.609 73.2875 452.659 73.3206 452.701 73.3624C452.799 73.4651 452.917 73.5464 453.048 73.6012C453.178 73.656 453.319 73.6831 453.461 73.6806C453.739 73.6718 454.004 73.5572 454.201 73.3601C454.398 73.1631 454.513 72.8985 454.522 72.62C454.524 72.4781 454.497 72.3373 454.442 72.2065C454.387 72.0757 454.306 71.9576 454.203 71.8598C454.108 71.7593 453.992 71.6792 453.865 71.6245C453.737 71.5698 453.6 71.5416 453.461 71.5416C453.319 71.5412 453.179 71.5692 453.049 71.6239C452.918 71.6785 452.8 71.7588 452.701 71.8598C452.66 71.9026 452.61 71.9366 452.555 71.9599C452.501 71.9831 452.442 71.9951 452.383 71.9951C452.323 71.9951 452.264 71.9831 452.21 71.9599C452.155 71.9366 452.106 71.9026 452.064 71.8598L451.976 71.7538C451.968 71.7342 451.963 71.7132 451.963 71.6919C451.963 71.6706 451.968 71.6496 451.976 71.63L452.206 69.5794C452.233 69.45 452.309 69.336 452.418 69.2612H452.612H454.946C455.063 69.2612 455.175 69.3078 455.258 69.3907C455.341 69.4735 455.388 69.586 455.388 69.7032C455.388 69.8204 455.341 69.9328 455.258 70.0156C455.175 70.0985 455.063 70.1451 454.946 70.1451H453.001L452.913 70.9229C453.089 70.9057 453.267 70.9057 453.443 70.9229C453.924 70.8433 454.418 70.9508 454.822 71.2234Z" fill="#9CADC2"/>
<path d="M456.696 71.8066C456.691 71.1387 456.875 70.4828 457.227 69.9151C457.372 69.6537 457.585 69.4359 457.843 69.2843C458.101 69.1327 458.395 69.0527 458.694 69.0527C458.993 69.0527 459.287 69.1327 459.545 69.2843C459.803 69.4359 460.016 69.6537 460.161 69.9151C460.508 70.4852 460.691 71.1395 460.691 71.8066C460.691 72.4737 460.508 73.128 460.161 73.6981C460.02 73.9643 459.808 74.187 459.55 74.3424C459.291 74.4977 458.996 74.5797 458.694 74.5797C458.392 74.5797 458.097 74.4977 457.838 74.3424C457.58 74.187 457.368 73.9643 457.227 73.6981C456.875 73.1303 456.691 72.4745 456.696 71.8066ZM459.825 71.8066C459.836 71.313 459.701 70.8272 459.436 70.4101C459.362 70.2733 459.256 70.1567 459.127 70.0705C458.997 69.9842 458.849 69.9309 458.694 69.9151C458.54 69.9337 458.393 69.9882 458.264 70.0742C458.135 70.1602 458.028 70.2752 457.952 70.4101C457.708 70.8352 457.58 71.3167 457.58 71.8066C457.58 72.2965 457.708 72.7779 457.952 73.2031C458.028 73.338 458.135 73.453 458.264 73.539C458.393 73.6249 458.54 73.6794 458.694 73.6981C458.849 73.6823 458.997 73.629 459.127 73.5427C459.256 73.4564 459.362 73.3398 459.436 73.2031C459.701 72.786 459.836 72.3002 459.825 71.8066Z" fill="#9CADC2"/>
<path d="M462.23 70.4094C462.217 70.2294 462.242 70.049 462.302 69.8789C462.362 69.7089 462.457 69.553 462.579 69.4206C462.702 69.2882 462.85 69.1822 463.015 69.1091C463.179 69.0359 463.357 68.9971 463.538 68.9951C463.717 68.9947 463.895 69.0313 464.06 69.1025C464.224 69.1737 464.373 69.278 464.495 69.409C464.618 69.54 464.712 69.6948 464.773 69.8639C464.833 70.033 464.858 70.2126 464.846 70.3917C464.855 70.571 464.829 70.7505 464.768 70.9194C464.707 71.0883 464.612 71.2432 464.49 71.3751C464.368 71.5069 464.221 71.613 464.058 71.687C463.894 71.761 463.717 71.8014 463.538 71.8059C463.359 71.8038 463.182 71.7655 463.019 71.6934C462.855 71.6214 462.708 71.517 462.586 71.3865C462.464 71.2561 462.369 71.1023 462.308 70.9343C462.247 70.7664 462.22 70.5878 462.23 70.4094ZM464.139 70.4094C464.139 69.9674 463.891 69.5962 463.538 69.5962C463.184 69.5962 462.937 69.9674 462.937 70.3917C462.937 70.8513 463.184 71.2048 463.538 71.2048C463.891 71.2048 464.139 70.8336 464.139 70.4094ZM463.149 74.104L466.773 69.1366C466.802 69.093 466.841 69.0572 466.887 69.0326C466.934 69.0079 466.985 68.995 467.038 68.9951C467.122 68.9951 467.203 69.0287 467.263 69.0883C467.322 69.148 467.356 69.229 467.356 69.3134C467.373 69.377 467.373 69.4441 467.356 69.5078L463.82 74.4752C463.787 74.5181 463.744 74.5531 463.695 74.5775C463.646 74.602 463.592 74.6153 463.538 74.6166C463.497 74.6167 463.456 74.6084 463.418 74.5922C463.381 74.576 463.347 74.5522 463.319 74.5224C463.29 74.4926 463.269 74.4574 463.255 74.4189C463.241 74.3803 463.235 74.3393 463.237 74.2984C463.21 74.2739 463.188 74.2439 463.172 74.2105C463.157 74.177 463.149 74.1407 463.149 74.104ZM465.571 73.2378C465.571 72.8908 465.708 72.5581 465.954 72.3127C466.199 72.0674 466.532 71.9296 466.879 71.9296C467.226 71.9296 467.558 72.0674 467.804 72.3127C468.049 72.5581 468.187 72.8908 468.187 73.2378C468.196 73.4171 468.17 73.5965 468.109 73.7654C468.048 73.9344 467.953 74.0894 467.832 74.2212C467.71 74.353 467.562 74.4591 467.399 74.5331C467.235 74.6071 467.058 74.6475 466.879 74.652C466.698 74.65 466.52 74.6112 466.356 74.538C466.191 74.4649 466.043 74.3589 465.92 74.2265C465.798 74.0942 465.704 73.9382 465.643 73.7682C465.583 73.5982 465.559 73.4177 465.571 73.2378ZM467.48 73.2378C467.48 72.7958 467.232 72.4246 466.879 72.4246C466.525 72.4246 466.278 72.7958 466.278 73.2201C466.278 73.6797 466.525 74.0332 466.896 74.0332C467.268 74.0332 467.48 73.662 467.48 73.2378Z" fill="#9CADC2"/>
<path d="M480.244 78.8428H451.818V79.5145H480.244V78.8428Z" fill="#C7C7C7"/>
<path d="M480.244 80.6982H451.818V81.3699H480.244V80.6982Z" fill="#C7C7C7"/>
<path d="M480.244 82.5366H451.818V83.2084H480.244V82.5366Z" fill="#C7C7C7"/>
<path d="M480.244 84.3926H451.818V85.0643H480.244V84.3926Z" fill="#C7C7C7"/>
<path d="M480.244 86.249H451.818V86.9208H480.244V86.249Z" fill="#C7C7C7"/>
<path d="M480.244 88.1055H451.818V88.7772H480.244V88.1055Z" fill="#C7C7C7"/>
<path d="M480.244 89.9619H451.818V90.6337H480.244V89.9619Z" fill="#C7C7C7"/>
<path d="M375.609 162.969L375.291 162.669L423.303 112.818H442.13V113.26H423.48L375.609 162.969Z" fill="#EBEBEB"/>
<path d="M442.608 113.049C442.608 113.556 442.458 114.051 442.176 114.473C441.894 114.894 441.494 115.223 441.026 115.417C440.557 115.611 440.042 115.662 439.545 115.563C439.047 115.464 438.591 115.22 438.232 114.861C437.874 114.503 437.63 114.046 437.531 113.549C437.432 113.051 437.483 112.536 437.677 112.068C437.871 111.599 438.199 111.199 438.621 110.917C439.042 110.636 439.538 110.485 440.045 110.485C440.724 110.485 441.376 110.755 441.857 111.236C442.338 111.717 442.608 112.369 442.608 113.049Z" fill="#9CADC2"/>
<path d="M455.743 114.321C455.768 114.827 455.592 115.323 455.252 115.699C454.912 116.076 454.437 116.302 453.931 116.327C453.424 116.353 452.928 116.177 452.552 115.837C452.176 115.497 451.95 115.022 451.924 114.515V114.056C451.917 113.508 452.007 112.964 452.189 112.447C452.38 111.897 452.739 111.421 453.215 111.086C453.57 110.861 453.979 110.733 454.399 110.715C454.457 110.712 454.515 110.721 454.57 110.742C454.624 110.762 454.674 110.792 454.717 110.832C454.76 110.871 454.794 110.918 454.818 110.971C454.843 111.024 454.856 111.081 454.859 111.139C454.859 111.255 454.816 111.367 454.737 111.452C454.658 111.537 454.55 111.59 454.434 111.599C454.172 111.596 453.914 111.67 453.692 111.811C453.483 111.956 453.313 112.15 453.197 112.376C453.151 112.435 453.116 112.501 453.091 112.571C453.332 112.471 453.59 112.417 453.851 112.412C454.354 112.416 454.835 112.62 455.19 112.977C455.544 113.335 455.743 113.818 455.743 114.321ZM454.876 114.321C454.876 114.044 454.766 113.779 454.571 113.583C454.375 113.388 454.11 113.278 453.833 113.278C453.627 113.278 453.425 113.339 453.254 113.454C453.082 113.568 452.949 113.731 452.87 113.922C452.791 114.112 452.77 114.322 452.81 114.524C452.851 114.727 452.95 114.913 453.096 115.058C453.242 115.204 453.428 115.304 453.63 115.344C453.832 115.384 454.042 115.363 454.233 115.285C454.423 115.206 454.586 115.072 454.701 114.9C454.815 114.729 454.876 114.527 454.876 114.321Z" fill="#9CADC2"/>
<path d="M459.898 112.871C460.082 113.054 460.229 113.271 460.329 113.511C460.429 113.751 460.481 114.008 460.481 114.268C460.472 114.785 460.262 115.279 459.896 115.645C459.53 116.011 459.036 116.221 458.519 116.23C458.262 116.229 458.008 116.177 457.771 116.076C457.534 115.976 457.32 115.83 457.14 115.647C457.098 115.607 457.064 115.559 457.041 115.506C457.018 115.453 457.006 115.395 457.006 115.337C457.006 115.279 457.018 115.222 457.041 115.169C457.064 115.116 457.098 115.068 457.14 115.028C457.181 114.985 457.23 114.951 457.285 114.928C457.34 114.905 457.399 114.893 457.458 114.893C457.517 114.893 457.576 114.905 457.631 114.928C457.686 114.951 457.735 114.985 457.776 115.028C457.876 115.127 457.995 115.204 458.126 115.256C458.256 115.307 458.396 115.332 458.536 115.328C458.677 115.331 458.816 115.306 458.947 115.254C459.077 115.203 459.196 115.126 459.296 115.028C459.491 114.822 459.605 114.551 459.615 114.268C459.615 114.126 459.587 113.986 459.532 113.856C459.478 113.725 459.398 113.607 459.296 113.508C459.197 113.409 459.078 113.332 458.947 113.28C458.816 113.228 458.677 113.203 458.536 113.207C458.396 113.204 458.257 113.23 458.126 113.281C457.996 113.333 457.877 113.41 457.776 113.508C457.735 113.55 457.686 113.584 457.631 113.608C457.576 113.631 457.517 113.643 457.458 113.643C457.399 113.643 457.34 113.631 457.285 113.608C457.23 113.584 457.181 113.55 457.14 113.508V113.402V113.26L457.387 111.21C457.397 111.146 457.419 111.085 457.452 111.031C457.486 110.976 457.53 110.929 457.582 110.891C457.651 110.873 457.724 110.873 457.794 110.891H460.127C460.245 110.891 460.357 110.938 460.44 111.021C460.523 111.104 460.569 111.216 460.569 111.333C460.569 111.451 460.523 111.563 460.44 111.646C460.357 111.729 460.245 111.775 460.127 111.775H458.183L458.077 112.571C458.252 112.544 458.431 112.544 458.607 112.571C459.059 112.512 459.518 112.619 459.898 112.871Z" fill="#9CADC2"/>
<path d="M461.7 112.058C461.691 111.879 461.717 111.699 461.778 111.531C461.839 111.362 461.934 111.207 462.056 111.075C462.178 110.943 462.325 110.837 462.488 110.763C462.652 110.689 462.829 110.649 463.008 110.644C463.186 110.649 463.36 110.688 463.522 110.762C463.683 110.835 463.828 110.939 463.949 111.07C464.069 111.2 464.162 111.353 464.222 111.52C464.282 111.686 464.308 111.864 464.299 112.041C464.32 112.224 464.303 112.41 464.247 112.586C464.192 112.762 464.099 112.924 463.977 113.062C463.854 113.2 463.704 113.31 463.535 113.386C463.367 113.461 463.184 113.501 463 113.501C462.815 113.501 462.632 113.461 462.464 113.386C462.296 113.31 462.145 113.2 462.022 113.062C461.9 112.924 461.807 112.762 461.752 112.586C461.696 112.41 461.679 112.224 461.7 112.041V112.058ZM463.609 112.058C463.622 111.965 463.616 111.871 463.591 111.78C463.566 111.69 463.524 111.605 463.467 111.531C463.409 111.457 463.337 111.395 463.256 111.349C463.174 111.303 463.084 111.274 462.991 111.263C462.619 111.263 462.407 111.616 462.407 112.041C462.407 112.5 462.655 112.854 463.008 112.854C463.362 112.854 463.609 112.482 463.609 112.058ZM462.602 115.753L466.243 110.803C466.268 110.756 466.307 110.716 466.354 110.691C466.401 110.666 466.455 110.656 466.509 110.662C466.549 110.659 466.59 110.665 466.629 110.679C466.668 110.693 466.703 110.715 466.733 110.743C466.762 110.771 466.786 110.805 466.802 110.843C466.818 110.881 466.827 110.921 466.827 110.962C466.847 111.031 466.847 111.105 466.827 111.174L463.185 116.124C463.156 116.168 463.117 116.203 463.07 116.228C463.024 116.253 462.972 116.266 462.92 116.266C462.879 116.268 462.838 116.262 462.8 116.248C462.761 116.234 462.726 116.212 462.696 116.184C462.666 116.156 462.642 116.122 462.626 116.084C462.61 116.047 462.602 116.006 462.602 115.965C462.581 115.896 462.581 115.822 462.602 115.753ZM465.041 114.887C465.032 114.707 465.058 114.528 465.119 114.359C465.18 114.19 465.275 114.035 465.397 113.903C465.519 113.771 465.666 113.665 465.829 113.591C465.993 113.517 466.17 113.477 466.349 113.472C466.528 113.477 466.704 113.517 466.867 113.591C467.03 113.666 467.176 113.772 467.296 113.904C467.417 114.036 467.51 114.191 467.569 114.36C467.628 114.529 467.652 114.708 467.64 114.887C467.661 115.07 467.644 115.256 467.588 115.432C467.533 115.608 467.441 115.77 467.318 115.908C467.195 116.046 467.045 116.156 466.876 116.232C466.708 116.308 466.525 116.347 466.341 116.347C466.156 116.347 465.973 116.308 465.805 116.232C465.637 116.156 465.486 116.046 465.363 115.908C465.241 115.77 465.149 115.608 465.093 115.432C465.037 115.256 465.02 115.07 465.041 114.887ZM466.95 114.887C466.963 114.794 466.957 114.699 466.932 114.609C466.908 114.518 466.865 114.433 466.808 114.359C466.75 114.285 466.678 114.223 466.597 114.177C466.515 114.131 466.425 114.102 466.332 114.091C465.961 114.091 465.748 114.445 465.748 114.887C465.748 115.346 465.996 115.7 466.349 115.7C466.703 115.7 466.95 115.258 466.95 114.887Z" fill="#9CADC2"/>
<path d="M480.244 120.49H451.818V121.162H480.244V120.49Z" fill="#C7C7C7"/>
<path d="M480.244 122.346H451.818V123.018H480.244V122.346Z" fill="#C7C7C7"/>
<path d="M480.244 124.203H451.818V124.874H480.244V124.203Z" fill="#C7C7C7"/>
<path d="M480.244 126.06H451.818V126.731H480.244V126.06Z" fill="#C7C7C7"/>
<path d="M480.244 127.897H451.818V128.569H480.244V127.897Z" fill="#C7C7C7"/>
<path d="M480.244 129.753H451.818V130.425H480.244V129.753Z" fill="#C7C7C7"/>
<path d="M480.244 131.609H451.818V132.281H480.244V131.609Z" fill="#C7C7C7"/>
<path d="M406.045 169.951C410.012 153.012 399.495 136.064 382.556 132.097C365.616 128.13 348.668 138.646 344.701 155.586C340.734 172.525 351.251 189.473 368.19 193.44C385.13 197.407 402.078 186.891 406.045 169.951Z" fill="#EBEBEB"/>
<path d="M490.019 41.3657H293.975V46.4745H490.019V41.3657Z" fill="#9CADC2"/>
<path d="M456.485 52.0083H327.491V57.1171H456.485V52.0083Z" fill="#9CADC2"/>
<g filter="url(#filter0_d_713_19794)">
<rect x="75" y="84" width="215.596" height="144.445" rx="11.2367" fill="white" shape-rendering="crispEdges"/>
<rect x="72.9676" y="81.9676" width="219.661" height="148.51" rx="13.2692" stroke="white" stroke-opacity="0.3" stroke-width="4.06488" shape-rendering="crispEdges"/>
<path d="M268.122 106.474H119.583V120.959H268.122V106.474Z" fill="#EBEBEB"/>
<path d="M198.284 110.579H124.417V116.84H198.284V110.579Z" fill="#FFB722"/>
<path d="M268.122 127.727H119.583V142.211H268.122V127.727Z" fill="#EBEBEB"/>
<path d="M239.686 131.832H124.417V138.094H239.686V131.832Z" fill="#083167"/>
<path d="M268.122 148.98H119.583V163.465H268.122V148.98Z" fill="#EBEBEB"/>
<path d="M153.309 153.085H124.417V159.347H153.309V153.085Z" fill="#FFB722"/>
<path d="M268.122 170.233H119.583V184.718H268.122V170.233Z" fill="#EBEBEB"/>
<path d="M215.977 174.339H124.417V180.601H215.977V174.339Z" fill="#083167"/>
<path d="M268.122 191.486H119.583V205.971H268.122V191.486Z" fill="#EBEBEB"/>
<path d="M229.566 195.591H124.417V201.853H229.566V195.591Z" fill="#FFB722"/>
<path d="M100.93 114.165C100.954 114.613 100.799 115.052 100.5 115.386C100.2 115.72 99.78 115.921 99.3321 115.945C98.8842 115.969 98.445 115.814 98.1112 115.514C97.7775 115.215 97.5764 114.795 97.5523 114.347C97.5523 114.217 97.5523 114.074 97.5523 113.944C97.5444 113.457 97.6281 112.972 97.7991 112.515C97.9625 112.035 98.2769 111.62 98.6955 111.333C99.0037 111.128 99.3644 111.015 99.7348 111.008C99.7853 111.005 99.836 111.011 99.8839 111.028C99.9318 111.044 99.9758 111.071 100.013 111.104C100.051 111.138 100.081 111.18 100.103 111.226C100.124 111.272 100.136 111.321 100.137 111.372C100.138 111.474 100.099 111.573 100.029 111.648C99.9589 111.723 99.863 111.768 99.7607 111.775C99.5316 111.786 99.3087 111.853 99.1112 111.97C98.9238 112.093 98.7716 112.263 98.6695 112.463C98.6315 112.52 98.6009 112.581 98.5786 112.645C98.787 112.552 99.0127 112.503 99.2411 112.502C99.6846 112.502 100.11 112.676 100.426 112.988C100.742 113.299 100.923 113.722 100.93 114.165ZM100.15 114.165C100.15 113.983 100.096 113.804 99.995 113.653C99.8937 113.501 99.7496 113.383 99.5811 113.313C99.4125 113.243 99.2271 113.225 99.0482 113.26C98.8692 113.296 98.7049 113.384 98.5759 113.513C98.4469 113.642 98.3591 113.806 98.3235 113.985C98.2879 114.164 98.3062 114.349 98.376 114.518C98.4458 114.687 98.564 114.831 98.7157 114.932C98.8674 115.033 99.0457 115.087 99.2281 115.087C99.3497 115.089 99.4704 115.066 99.5831 115.021C99.6958 114.975 99.7982 114.907 99.8842 114.821C99.9702 114.735 100.038 114.633 100.084 114.52C100.13 114.407 100.152 114.287 100.15 114.165Z" fill="#9CADC2"/>
<path d="M102.031 113.424C102.024 112.836 102.186 112.259 102.499 111.761C102.632 111.533 102.822 111.341 103.049 111.205C103.276 111.069 103.534 110.992 103.798 110.982C104.063 110.991 104.322 111.067 104.549 111.203C104.776 111.34 104.965 111.532 105.097 111.761C105.416 112.257 105.579 112.836 105.565 113.424C105.573 114.012 105.411 114.59 105.097 115.087C104.961 115.312 104.771 115.5 104.544 115.633C104.317 115.767 104.061 115.843 103.798 115.854C103.536 115.84 103.281 115.764 103.054 115.63C102.828 115.497 102.638 115.31 102.499 115.087C102.192 114.587 102.03 114.011 102.031 113.424ZM104.786 113.424C104.803 112.967 104.686 112.516 104.448 112.125C104.383 112.007 104.29 111.907 104.176 111.834C104.063 111.762 103.933 111.719 103.798 111.709C103.662 111.718 103.53 111.76 103.414 111.833C103.298 111.906 103.203 112.006 103.136 112.125C102.902 112.517 102.789 112.969 102.811 113.424C102.799 113.854 102.912 114.278 103.136 114.645C103.202 114.767 103.297 114.871 103.413 114.948C103.528 115.025 103.66 115.073 103.798 115.087C103.934 115.072 104.064 115.023 104.178 114.946C104.291 114.869 104.383 114.766 104.448 114.645C104.667 114.277 104.775 113.853 104.76 113.424H104.786Z" fill="#9CADC2"/>
<path d="M106.879 112.189C106.861 112.026 106.877 111.861 106.927 111.705C106.977 111.549 107.059 111.405 107.168 111.282C107.277 111.159 107.411 111.061 107.56 110.994C107.709 110.926 107.871 110.891 108.036 110.89C108.199 110.891 108.361 110.926 108.51 110.994C108.658 111.061 108.791 111.16 108.899 111.283C109.007 111.405 109.088 111.55 109.136 111.706C109.184 111.862 109.199 112.027 109.179 112.189C109.195 112.352 109.177 112.516 109.127 112.671C109.076 112.827 108.994 112.97 108.885 113.092C108.777 113.214 108.644 113.313 108.495 113.381C108.347 113.449 108.186 113.486 108.022 113.488C107.86 113.486 107.699 113.449 107.551 113.381C107.403 113.312 107.271 113.214 107.164 113.092C107.056 112.969 106.975 112.826 106.926 112.671C106.877 112.515 106.861 112.351 106.879 112.189ZM108.555 112.189C108.555 111.8 108.334 111.475 108.022 111.475C107.711 111.475 107.503 111.8 107.503 112.176C107.503 112.566 107.724 112.878 108.036 112.878C108.347 112.878 108.529 112.566 108.529 112.189H108.555ZM107.685 115.437L110.868 111.072C110.895 111.032 110.932 110.999 110.975 110.976C111.018 110.954 111.066 110.942 111.114 110.942C111.186 110.945 111.253 110.975 111.304 111.026C111.354 111.076 111.384 111.144 111.387 111.215C111.39 111.282 111.366 111.347 111.322 111.397L108.126 115.788C108.101 115.827 108.066 115.859 108.026 115.882C107.985 115.904 107.939 115.917 107.893 115.918C107.857 115.918 107.821 115.911 107.788 115.897C107.755 115.883 107.725 115.863 107.7 115.838C107.674 115.812 107.654 115.782 107.641 115.749C107.627 115.716 107.62 115.681 107.62 115.645C107.613 115.57 107.637 115.495 107.685 115.437ZM109.828 114.683C109.828 114.38 109.949 114.09 110.163 113.875C110.377 113.661 110.668 113.54 110.971 113.54C111.275 113.54 111.565 113.661 111.78 113.875C111.994 114.09 112.115 114.38 112.115 114.683C112.131 114.846 112.113 115.01 112.063 115.166C112.012 115.321 111.93 115.464 111.821 115.587C111.713 115.709 111.58 115.807 111.431 115.875C111.283 115.943 111.122 115.98 110.958 115.983C110.796 115.98 110.636 115.944 110.489 115.875C110.341 115.807 110.21 115.708 110.103 115.585C109.997 115.463 109.917 115.319 109.87 115.164C109.822 115.008 109.808 114.845 109.828 114.683ZM111.504 114.683C111.504 114.307 111.283 113.982 110.958 113.982C110.634 113.982 110.439 114.307 110.439 114.671C110.439 115.073 110.66 115.385 110.971 115.385C111.283 115.385 111.504 115.047 111.504 114.683Z" fill="#9CADC2"/>
<path d="M97.5518 133.975C97.5582 133.548 97.7268 133.138 98.0233 132.83C98.3198 132.522 98.7222 132.338 99.1493 132.314C99.5763 132.291 99.9962 132.431 100.324 132.706C100.652 132.98 100.864 133.369 100.916 133.793C100.916 133.793 100.916 134.066 100.916 134.196C100.917 134.683 100.833 135.166 100.67 135.625C100.506 136.106 100.192 136.52 99.7732 136.807C99.4618 137.008 99.1037 137.124 98.7339 137.145C98.6828 137.147 98.6318 137.138 98.5838 137.12C98.5359 137.102 98.4919 137.075 98.4545 137.04C98.4171 137.005 98.3869 136.963 98.3658 136.916C98.3446 136.87 98.3329 136.819 98.3312 136.768C98.3308 136.668 98.3678 136.571 98.4351 136.496C98.5024 136.422 98.5951 136.375 98.695 136.366C98.9294 136.362 99.1583 136.294 99.3575 136.171C99.5358 136.046 99.6825 135.881 99.7862 135.69L99.8772 135.508C99.6682 135.599 99.4422 135.643 99.2146 135.638C98.7757 135.631 98.3566 135.454 98.0462 135.144C97.7358 134.833 97.5585 134.414 97.5518 133.975ZM98.3183 133.975C98.3217 134.218 98.4204 134.449 98.593 134.619C98.7656 134.789 98.9982 134.885 99.2406 134.885C99.4199 134.882 99.5944 134.827 99.7422 134.725C99.8901 134.624 100.005 134.481 100.071 134.314C100.138 134.148 100.154 133.966 100.118 133.79C100.081 133.614 99.9937 133.454 99.8661 133.328C99.7384 133.202 99.5763 133.117 99.4003 133.082C99.2243 133.048 99.0421 133.067 98.8767 133.136C98.7113 133.206 98.57 133.322 98.4707 133.471C98.3713 133.621 98.3183 133.796 98.3183 133.975Z" fill="#9CADC2"/>
<path d="M102.031 134.677C102.024 134.089 102.186 133.512 102.499 133.014C102.632 132.785 102.822 132.594 103.049 132.458C103.276 132.321 103.534 132.245 103.798 132.235C104.063 132.244 104.322 132.32 104.549 132.456C104.776 132.593 104.965 132.785 105.097 133.014C105.416 133.509 105.579 134.089 105.565 134.677C105.573 135.265 105.411 135.843 105.097 136.34C104.961 136.565 104.771 136.752 104.544 136.886C104.317 137.02 104.061 137.096 103.798 137.106C103.536 137.093 103.281 137.017 103.054 136.883C102.828 136.75 102.638 136.563 102.499 136.34C102.192 135.84 102.03 135.264 102.031 134.677ZM104.786 134.677C104.803 134.22 104.686 133.768 104.448 133.378C104.383 133.26 104.29 133.16 104.176 133.087C104.063 133.015 103.933 132.972 103.798 132.962C103.662 132.971 103.53 133.013 103.414 133.086C103.298 133.159 103.203 133.259 103.136 133.378C102.902 133.77 102.789 134.222 102.811 134.677C102.799 135.107 102.912 135.531 103.136 135.898C103.202 136.02 103.297 136.124 103.413 136.201C103.528 136.278 103.66 136.325 103.798 136.34C103.934 136.325 104.064 136.276 104.178 136.199C104.291 136.122 104.383 136.019 104.448 135.898C104.667 135.53 104.775 135.106 104.76 134.677H104.786Z" fill="#9CADC2"/>
<path d="M106.879 133.442C106.861 133.279 106.877 133.114 106.927 132.958C106.977 132.802 107.059 132.657 107.168 132.535C107.277 132.412 107.411 132.314 107.56 132.247C107.709 132.179 107.871 132.144 108.035 132.143C108.193 132.144 108.349 132.178 108.493 132.242C108.637 132.305 108.766 132.398 108.873 132.514C108.98 132.629 109.063 132.765 109.115 132.914C109.168 133.062 109.189 133.22 109.179 133.377C109.195 133.54 109.177 133.704 109.127 133.859C109.076 134.015 108.994 134.158 108.885 134.28C108.777 134.402 108.644 134.501 108.495 134.569C108.347 134.637 108.186 134.674 108.022 134.676C107.866 134.673 107.711 134.638 107.568 134.574C107.424 134.51 107.296 134.417 107.189 134.302C107.082 134.187 107 134.051 106.947 133.904C106.893 133.756 106.871 133.599 106.879 133.442ZM108.555 133.442C108.555 133.052 108.334 132.728 108.022 132.728C107.711 132.728 107.503 133.052 107.503 133.429C107.503 133.819 107.724 134.131 108.035 134.131C108.347 134.131 108.529 133.819 108.529 133.442H108.555ZM107.685 136.69L110.868 132.325C110.895 132.285 110.932 132.252 110.975 132.229C111.018 132.207 111.066 132.195 111.114 132.195C111.186 132.198 111.253 132.228 111.304 132.278C111.354 132.329 111.384 132.397 111.387 132.468C111.39 132.535 111.366 132.6 111.322 132.65L108.126 137.015C108.103 137.056 108.069 137.089 108.028 137.112C107.986 137.135 107.94 137.146 107.893 137.145C107.82 137.145 107.751 137.116 107.7 137.065C107.649 137.014 107.62 136.944 107.62 136.872C107.62 136.805 107.643 136.741 107.685 136.69ZM109.828 135.923C109.828 135.62 109.949 135.329 110.163 135.115C110.377 134.901 110.668 134.78 110.971 134.78C111.275 134.78 111.565 134.901 111.78 135.115C111.994 135.329 112.115 135.62 112.115 135.923C112.131 136.086 112.113 136.25 112.063 136.406C112.012 136.561 111.93 136.704 111.821 136.826C111.713 136.949 111.58 137.047 111.431 137.115C111.283 137.183 111.122 137.22 110.958 137.223C110.796 137.22 110.636 137.184 110.489 137.115C110.341 137.047 110.21 136.948 110.103 136.825C109.997 136.703 109.917 136.559 109.87 136.404C109.822 136.248 109.808 136.085 109.828 135.923ZM111.504 135.923C111.504 135.534 111.283 135.222 110.958 135.222C110.634 135.222 110.439 135.534 110.439 135.91C110.439 136.313 110.66 136.625 110.971 136.625C111.283 136.625 111.504 136.3 111.504 135.923Z" fill="#9CADC2"/>
<path d="M100.175 155.397C100.499 155.721 100.681 156.16 100.681 156.618C100.681 157.076 100.499 157.516 100.175 157.84C100.016 158.001 99.8255 158.129 99.6158 158.216C99.4061 158.303 99.1811 158.348 98.954 158.346C98.4959 158.346 98.0567 158.164 97.7329 157.84C97.6588 157.766 97.6172 157.665 97.6172 157.56C97.6172 157.456 97.6588 157.355 97.7329 157.281C97.8069 157.207 97.9074 157.165 98.0122 157.165C98.1169 157.165 98.2174 157.207 98.2915 157.281C98.4658 157.449 98.6987 157.543 98.941 157.543C99.1833 157.543 99.4162 157.449 99.5906 157.281C99.7211 157.151 99.8103 156.985 99.847 156.805C99.8837 156.624 99.8663 156.437 99.7969 156.266C99.7275 156.095 99.6093 155.949 99.457 155.845C99.3047 155.742 99.1252 155.685 98.941 155.683C98.8864 155.686 98.8319 155.676 98.7821 155.653C98.7323 155.631 98.6888 155.596 98.6552 155.553C98.583 155.478 98.5426 155.378 98.5426 155.274C98.5426 155.17 98.583 155.07 98.6552 154.995L99.3697 154.267H98.2395C98.1878 154.269 98.1364 154.26 98.0883 154.241C98.0401 154.222 97.9964 154.194 97.9599 154.157C97.9233 154.12 97.8947 154.077 97.8758 154.029C97.8568 153.98 97.848 153.929 97.8498 153.877C97.848 153.825 97.8568 153.773 97.8756 153.724C97.8944 153.675 97.9229 153.631 97.9592 153.593C97.9956 153.556 98.0392 153.526 98.0873 153.505C98.1355 153.485 98.1872 153.475 98.2395 153.475H100.292C100.344 153.475 100.396 153.485 100.444 153.505C100.492 153.526 100.536 153.556 100.572 153.593C100.609 153.631 100.637 153.675 100.656 153.724C100.675 153.773 100.684 153.825 100.682 153.877C100.695 153.937 100.695 153.999 100.682 154.059L100.604 154.15L99.7335 155.06C99.9018 155.142 100.052 155.256 100.175 155.397Z" fill="#9CADC2"/>
<path d="M101.785 155.918C101.78 155.334 101.942 154.761 102.253 154.268C102.386 154.039 102.575 153.847 102.802 153.711C103.03 153.575 103.287 153.498 103.552 153.488C103.817 153.497 104.075 153.573 104.303 153.71C104.53 153.846 104.719 154.038 104.851 154.268C105.168 154.759 105.331 155.333 105.319 155.918C105.331 156.506 105.168 157.085 104.851 157.58C104.717 157.808 104.528 157.999 104.301 158.135C104.074 158.272 103.816 158.349 103.552 158.36C103.288 158.346 103.032 158.268 102.805 158.132C102.579 157.996 102.389 157.807 102.253 157.58C101.942 157.082 101.78 156.505 101.785 155.918ZM104.539 155.918C104.545 155.483 104.428 155.055 104.202 154.683C104.137 154.565 104.043 154.465 103.93 154.393C103.816 154.32 103.686 154.277 103.552 154.268C103.416 154.276 103.284 154.319 103.168 154.391C103.052 154.464 102.957 154.564 102.89 154.683C102.663 155.055 102.546 155.483 102.552 155.918C102.529 156.375 102.647 156.828 102.89 157.217C102.957 157.337 103.052 157.438 103.168 157.513C103.283 157.588 103.415 157.633 103.552 157.645C103.687 157.633 103.818 157.588 103.931 157.513C104.044 157.438 104.137 157.336 104.202 157.217C104.444 156.828 104.562 156.375 104.539 155.918Z" fill="#9CADC2"/>
<path d="M106.658 154.761C106.639 154.598 106.656 154.433 106.705 154.277C106.755 154.121 106.837 153.977 106.946 153.854C107.055 153.732 107.189 153.634 107.338 153.566C107.488 153.499 107.65 153.463 107.814 153.462C107.977 153.463 108.139 153.498 108.288 153.566C108.437 153.634 108.57 153.732 108.678 153.855C108.786 153.978 108.866 154.122 108.915 154.278C108.963 154.434 108.977 154.599 108.957 154.761C108.966 154.919 108.943 155.077 108.889 155.226C108.835 155.374 108.751 155.511 108.643 155.626C108.535 155.741 108.404 155.833 108.26 155.897C108.115 155.961 107.959 155.994 107.801 155.996C107.643 155.994 107.488 155.961 107.344 155.897C107.2 155.833 107.07 155.741 106.963 155.625C106.856 155.51 106.774 155.373 106.721 155.225C106.669 155.076 106.647 154.919 106.658 154.761ZM108.333 154.761C108.333 154.372 108.113 154.047 107.801 154.047C107.489 154.047 107.281 154.372 107.281 154.749C107.281 155.138 107.502 155.45 107.814 155.45C108.126 155.45 108.333 155.073 108.333 154.761ZM107.45 158.009L110.646 153.644C110.671 153.605 110.706 153.573 110.747 153.55C110.787 153.528 110.833 153.515 110.88 153.514C110.953 153.514 111.024 153.543 111.077 153.593C111.131 153.644 111.162 153.714 111.165 153.787C111.185 153.846 111.185 153.91 111.165 153.969L107.97 158.334C107.942 158.374 107.905 158.407 107.862 158.43C107.819 158.452 107.772 158.464 107.723 158.464C107.688 158.464 107.653 158.457 107.62 158.443C107.588 158.429 107.559 158.409 107.534 158.383C107.51 158.358 107.491 158.328 107.479 158.295C107.467 158.261 107.461 158.226 107.463 158.191C107.431 158.113 107.427 158.026 107.45 157.944V158.009ZM109.594 157.243C109.577 157.08 109.595 156.916 109.646 156.761C109.696 156.605 109.778 156.462 109.887 156.34C109.996 156.218 110.128 156.119 110.277 156.051C110.425 155.983 110.586 155.946 110.75 155.944C110.913 155.946 111.073 155.983 111.221 156.051C111.369 156.12 111.501 156.218 111.609 156.34C111.716 156.463 111.797 156.606 111.846 156.762C111.895 156.917 111.911 157.081 111.893 157.243C111.909 157.405 111.891 157.57 111.841 157.725C111.791 157.88 111.708 158.024 111.6 158.146C111.491 158.268 111.358 158.366 111.21 158.434C111.061 158.502 110.9 158.539 110.737 158.542C110.568 158.54 110.401 158.502 110.248 158.43C110.095 158.358 109.959 158.253 109.85 158.124C109.742 157.994 109.662 157.842 109.618 157.679C109.574 157.516 109.565 157.345 109.594 157.178V157.243ZM111.269 157.243C111.269 156.853 111.049 156.541 110.737 156.541C110.425 156.541 110.217 156.853 110.217 157.23C110.217 157.632 110.438 157.944 110.75 157.944C111.062 157.944 111.269 157.555 111.269 157.178V157.243Z" fill="#9CADC2"/>
<path d="M100.656 175.274L98.9149 179.444C98.888 179.514 98.8397 179.575 98.7769 179.617C98.714 179.659 98.6396 179.68 98.5641 179.678H98.4212C98.3291 179.635 98.2565 179.559 98.2179 179.465C98.1794 179.371 98.1778 179.266 98.2134 179.171L99.7073 175.598H97.9146C97.825 175.582 97.7441 175.535 97.6859 175.465C97.6276 175.395 97.5957 175.306 97.5957 175.215C97.5957 175.124 97.6276 175.036 97.6859 174.966C97.7441 174.896 97.825 174.849 97.9146 174.832H100.37L100.526 174.897V175.118C100.526 175.118 100.734 175.248 100.656 175.274Z" fill="#9CADC2"/>
<path d="M101.488 177.171C101.478 176.582 101.641 176.004 101.956 175.508C102.092 175.283 102.282 175.095 102.509 174.962C102.736 174.828 102.992 174.752 103.255 174.741C103.518 174.75 103.775 174.825 104.002 174.958C104.229 175.092 104.419 175.281 104.554 175.508C104.869 176.004 105.031 176.582 105.021 177.171C105.033 177.759 104.871 178.338 104.554 178.833C104.42 179.061 104.23 179.252 104.003 179.388C103.776 179.525 103.519 179.602 103.255 179.613C102.991 179.599 102.734 179.521 102.508 179.385C102.281 179.249 102.092 179.06 101.956 178.833C101.639 178.338 101.476 177.759 101.488 177.171ZM104.242 177.171C104.248 176.736 104.131 176.308 103.904 175.936C103.837 175.819 103.744 175.719 103.631 175.644C103.518 175.57 103.389 175.523 103.255 175.508C103.118 175.522 102.987 175.568 102.872 175.643C102.757 175.717 102.661 175.818 102.592 175.936C102.366 176.308 102.249 176.736 102.254 177.171C102.247 177.606 102.364 178.034 102.592 178.405C102.659 178.525 102.755 178.626 102.87 178.701C102.986 178.776 103.118 178.821 103.255 178.833C103.39 178.821 103.52 178.776 103.634 178.701C103.747 178.626 103.84 178.524 103.904 178.405C104.133 178.034 104.25 177.606 104.242 177.171Z" fill="#9CADC2"/>
<path d="M106.36 175.949C106.342 175.786 106.358 175.621 106.408 175.465C106.457 175.309 106.539 175.165 106.648 175.042C106.757 174.92 106.891 174.822 107.04 174.754C107.19 174.687 107.352 174.651 107.516 174.65C107.673 174.652 107.828 174.685 107.971 174.749C108.115 174.813 108.244 174.906 108.35 175.021C108.456 175.137 108.537 175.274 108.588 175.422C108.639 175.571 108.659 175.728 108.646 175.885C108.646 176.188 108.526 176.479 108.311 176.693C108.097 176.907 107.806 177.028 107.503 177.028C107.2 177.028 106.909 176.907 106.695 176.693C106.48 176.479 106.36 176.188 106.36 175.885V175.949ZM108.036 175.949C108.036 175.56 107.815 175.235 107.503 175.235C107.191 175.235 106.97 175.56 106.97 175.937C106.959 176.018 106.965 176.102 106.987 176.182C107.008 176.261 107.045 176.336 107.096 176.402C107.147 176.467 107.21 176.521 107.282 176.562C107.354 176.603 107.434 176.628 107.516 176.638C107.841 176.638 108.036 176.326 108.036 175.949ZM107.152 179.197L110.348 174.832C110.372 174.791 110.406 174.758 110.447 174.735C110.488 174.712 110.535 174.701 110.582 174.702C110.619 174.701 110.656 174.706 110.69 174.719C110.725 174.732 110.756 174.752 110.783 174.778C110.81 174.803 110.831 174.834 110.846 174.868C110.86 174.902 110.868 174.938 110.868 174.975C110.868 175.041 110.845 175.106 110.803 175.157L107.607 179.522C107.579 179.562 107.543 179.595 107.5 179.618C107.457 179.64 107.409 179.652 107.36 179.652C107.29 179.649 107.224 179.618 107.176 179.568C107.127 179.517 107.1 179.449 107.1 179.379C107.1 179.315 107.118 179.252 107.152 179.197ZM109.296 178.431C109.28 178.268 109.297 178.104 109.348 177.949C109.398 177.793 109.48 177.65 109.589 177.528C109.698 177.406 109.83 177.307 109.979 177.239C110.128 177.171 110.289 177.134 110.452 177.132C110.609 177.135 110.764 177.17 110.907 177.234C111.05 177.298 111.179 177.391 111.286 177.506C111.392 177.621 111.475 177.757 111.528 177.904C111.581 178.052 111.604 178.209 111.595 178.366C111.611 178.528 111.594 178.693 111.543 178.848C111.493 179.004 111.411 179.147 111.302 179.269C111.193 179.391 111.06 179.489 110.912 179.557C110.763 179.625 110.602 179.662 110.439 179.665C110.282 179.662 110.127 179.627 109.984 179.563C109.841 179.498 109.712 179.406 109.605 179.291C109.499 179.175 109.416 179.04 109.363 178.892C109.31 178.744 109.287 178.588 109.296 178.431ZM110.972 178.431C110.972 178.041 110.751 177.729 110.439 177.729C110.127 177.729 109.919 178.041 109.919 178.418C109.919 178.821 110.14 179.132 110.452 179.132C110.764 179.132 110.972 178.808 110.972 178.431Z" fill="#9CADC2"/>
<path d="M100.799 199.203C100.799 199.644 100.624 200.067 100.312 200.379C100 200.691 99.5775 200.866 99.1365 200.866C98.6955 200.866 98.2725 200.691 97.9607 200.379C97.6488 200.067 97.4736 199.644 97.4736 199.203C97.4724 198.93 97.5395 198.661 97.6689 198.421C97.7982 198.18 97.9856 197.976 98.2141 197.826C98.0894 197.656 98.0142 197.454 97.9971 197.244C97.9799 197.033 98.0214 196.822 98.1169 196.634C98.2125 196.446 98.3583 196.287 98.5383 196.177C98.7183 196.066 98.9253 196.008 99.1365 196.008C99.3477 196.008 99.5548 196.066 99.7347 196.177C99.9147 196.287 100.061 196.446 100.156 196.634C100.252 196.822 100.293 197.033 100.276 197.244C100.259 197.454 100.184 197.656 100.059 197.826C100.286 197.978 100.472 198.182 100.601 198.422C100.73 198.663 100.798 198.931 100.799 199.203ZM100.046 199.203C100.046 198.966 99.9514 198.738 99.7833 198.57C99.6152 198.402 99.3872 198.307 99.1495 198.307C98.9093 198.307 98.6785 198.401 98.5063 198.568C98.334 198.735 98.2339 198.963 98.2271 199.203C98.2338 199.445 98.3336 199.674 98.5055 199.844C98.6774 200.013 98.9081 200.11 99.1495 200.113C99.3884 200.109 99.6164 200.012 99.7841 199.842C99.9519 199.672 100.046 199.442 100.046 199.203ZM98.7468 197.138C98.7468 197.19 98.7572 197.242 98.7776 197.29C98.798 197.338 98.8279 197.382 98.8655 197.418C98.9031 197.455 98.9476 197.483 98.9963 197.502C99.0451 197.521 99.0972 197.529 99.1495 197.528C99.2529 197.528 99.352 197.487 99.4251 197.413C99.4982 197.34 99.5392 197.241 99.5392 197.138C99.5392 197.035 99.4982 196.935 99.4251 196.862C99.352 196.789 99.2529 196.748 99.1495 196.748C99.0972 196.746 99.0451 196.755 98.9963 196.774C98.9476 196.793 98.9031 196.821 98.8655 196.858C98.8279 196.894 98.798 196.938 98.7776 196.986C98.7572 197.034 98.7468 197.086 98.7468 197.138Z" fill="#9CADC2"/>
<path d="M101.929 198.424C101.918 197.84 102.08 197.265 102.397 196.774C102.522 196.537 102.708 196.339 102.937 196.201C103.166 196.063 103.429 195.99 103.696 195.99C103.964 195.99 104.226 196.063 104.455 196.201C104.684 196.339 104.871 196.537 104.995 196.774C105.312 197.265 105.475 197.84 105.463 198.424C105.475 199.012 105.312 199.591 104.995 200.087C104.871 200.324 104.684 200.522 104.455 200.66C104.226 200.798 103.964 200.871 103.696 200.871C103.429 200.871 103.166 200.798 102.937 200.66C102.708 200.522 102.522 200.324 102.397 200.087C102.08 199.591 101.917 199.012 101.929 198.424ZM104.67 198.424C104.693 197.968 104.58 197.516 104.346 197.125C104.285 197.005 104.192 196.904 104.077 196.833C103.963 196.762 103.831 196.725 103.696 196.725C103.561 196.725 103.429 196.762 103.315 196.833C103.2 196.904 103.107 197.005 103.047 197.125C102.808 197.515 102.69 197.967 102.709 198.424C102.699 198.859 102.817 199.288 103.047 199.658C103.104 199.783 103.195 199.888 103.31 199.962C103.425 200.036 103.559 200.075 103.696 200.075C103.833 200.075 103.967 200.036 104.082 199.962C104.197 199.888 104.289 199.783 104.346 199.658C104.557 199.283 104.656 198.854 104.631 198.424H104.67Z" fill="#9CADC2"/>
<path d="M106.802 197.203C106.802 196.899 106.922 196.609 107.137 196.394C107.351 196.18 107.642 196.059 107.945 196.059C108.248 196.059 108.539 196.18 108.753 196.394C108.968 196.609 109.088 196.899 109.088 197.203C109.088 197.506 108.968 197.796 108.753 198.011C108.539 198.225 108.248 198.346 107.945 198.346C107.642 198.346 107.351 198.225 107.137 198.011C106.922 197.796 106.802 197.506 106.802 197.203ZM108.478 197.203C108.478 196.813 108.257 196.488 107.932 196.488C107.607 196.488 107.412 196.813 107.412 197.19C107.412 197.579 107.633 197.891 107.945 197.891C108.257 197.891 108.53 197.631 108.53 197.203H108.478ZM107.594 200.45L110.79 196.085C110.815 196.046 110.85 196.014 110.891 195.991C110.931 195.969 110.977 195.956 111.024 195.955C111.061 195.954 111.098 195.959 111.132 195.972C111.167 195.985 111.198 196.005 111.225 196.031C111.252 196.056 111.273 196.087 111.288 196.121C111.302 196.155 111.31 196.191 111.31 196.228C111.31 196.295 111.287 196.359 111.245 196.41L108.049 200.775C108.021 200.815 107.985 200.848 107.942 200.871C107.899 200.893 107.851 200.905 107.802 200.905C107.73 200.905 107.66 200.876 107.609 200.825C107.558 200.774 107.529 200.704 107.529 200.632C107.529 200.566 107.552 200.502 107.594 200.45ZM109.738 199.684C109.721 199.523 109.737 199.359 109.787 199.205C109.837 199.051 109.919 198.909 110.028 198.788C110.136 198.668 110.269 198.571 110.417 198.505C110.565 198.439 110.725 198.405 110.887 198.405C111.05 198.405 111.21 198.439 111.358 198.505C111.506 198.571 111.639 198.668 111.747 198.788C111.856 198.909 111.937 199.051 111.987 199.205C112.037 199.359 112.054 199.523 112.037 199.684C112.053 199.846 112.036 200.011 111.985 200.166C111.935 200.321 111.852 200.465 111.744 200.587C111.635 200.709 111.502 200.807 111.354 200.875C111.205 200.943 111.044 200.98 110.881 200.983C110.717 200.982 110.556 200.947 110.407 200.879C110.258 200.812 110.125 200.713 110.017 200.591C109.909 200.468 109.828 200.323 109.78 200.167C109.732 200.011 109.717 199.846 109.738 199.684ZM111.414 199.684C111.414 199.294 111.193 198.982 110.881 198.982C110.569 198.982 110.361 199.294 110.361 199.671C110.361 200.074 110.582 200.385 110.894 200.385C111.206 200.385 111.414 200.061 111.414 199.684Z" fill="#9CADC2"/>
</g>
<defs>
<filter id="filter0_d_713_19794" x="0.599266" y="15.715" width="364.398" height="293.247" filterUnits="userSpaceOnUse" color-interpolation-filters="sRGB">
<feFlood flood-opacity="0" result="BackgroundImageFix"/>
<feColorMatrix in="SourceAlpha" type="matrix" values="0 0 0 0 0 0 0 0 0 0 0 0 0 0 0 0 0 0 127 0" result="hardAlpha"/>
<feOffset dy="6.1162"/>
<feGaussianBlur stdDeviation="35.1681"/>
<feComposite in2="hardAlpha" operator="out"/>
<feColorMatrix type="matrix" values="0 0 0 0 0 0 0 0 0 0 0 0 0 0 0 0 0 0 0.25 0"/>
<feBlend mode="normal" in2="BackgroundImageFix" result="effect1_dropShadow_713_19794"/>
<feBlend mode="normal" in="SourceGraphic" in2="effect1_dropShadow_713_19794" result="shape"/>
</filter>
</defs>
</svg>
